<svg width="16" height="16" viewBox="0 0 16 16" fill="none" xmlns="http://www.w3.org/2000/svg">
<g clip-path="url(#clip0_572_2)">
<rect width="16" height="16" rx="8" fill="black"/>
<path fill-rule="evenodd" clip-rule="evenodd" d="M15.631 8.87316L14.3355 10.2061L14.0106 9.82896C13.936 9.76922 13.7351 9.59972 13.529 9.3996C13.3229 9.19948 13.2614 9.1594 13.2565 9.16438L12.9204 8.92917L12.6666 8.73502L12.4388 8.62674L12.2223 8.49607C12.1787 8.47242 12.0759 8.4199 12.0132 8.399C11.9505 8.37809 11.89 8.39028 11.8676 8.399H10.4451H10.0344L9.81783 8.37659L9.58634 8.32059C9.50918 8.29819 9.31454 8.23995 9.15325 8.18618C8.99196 8.13242 8.94666 8.10902 8.94417 8.10404L8.72015 7.99203L8.54094 7.87256L8.33186 7.74935L8.13398 7.61121L7.92116 7.41333L7.71955 7.22292L7.55154 7.01383L7.4246 6.79355L7.29019 6.53967L7.23045 6.33432L7.15578 6.42766V6.63301V6.9541V7.44693L7.23045 7.74935L7.36113 8.11151L7.55154 8.42513L7.76062 8.67902L8.0033 8.94783L8.31319 9.22412L8.67535 9.45934L9.13458 9.75802L9.51167 10.0194L9.8701 10.2919L10.2472 10.6317L10.5533 10.9005L10.8856 11.2403L11.203 11.6248L11.5763 12.1326L11.7817 12.4723L12.043 12.9726L12.338 13.6335L12.5396 14.2309L12.6852 15.1008L12.7263 15.8886L12.6852 16.4747L12.5807 16.2731L12.3828 15.9371L12.1924 15.6198L12.043 15.3584L11.8601 15.0448L11.6137 14.72L11.3934 14.4026L11.1843 14.1077L10.9155 13.8426L10.6355 13.514L10.3816 13.2191L9.9261 12.7486L9.50421 12.3641L9.13831 12.0728L8.79109 11.7854L8.35426 11.4829L7.95477 11.2067L7.63368 11.0013L7.32379 10.8296L6.96163 10.6205L6.58081 10.4338L6.24478 10.2583L5.79675 10.0791L5.37859 9.9223L4.66174 9.64975L3.94863 9.45934L3.1235 9.23159L2.38425 9.08598L1.72341 9.00384L1.22684 8.94783V8.89556L1.36498 8.79849L1.6562 8.52967L1.96236 8.18245L2.18637 7.88003L2.47012 7.35733L2.6008 6.9205L2.64187 6.577V5.83775L2.57467 5.4868L2.51119 5.23291L2.33572 4.81848L2.14157 4.41526L2.00716 4.18004V4.0755L2.1789 4.04563L2.38052 3.97843L2.64187 3.87015L2.84348 3.76188L3.10857 3.63867L3.36619 3.45572L3.57527 3.31011L3.89636 3.00023L4.09797 2.77621L4.29585 2.5522L4.54973 2.20871L4.69534 1.93242L4.89696 1.57773L5.0575 1.1857L5.13217 1.01022H5.20684L5.38979 1.11476L5.78182 1.28278L6.13651 1.40972L6.41653 1.50679L6.69281 1.57773H7.10351H7.68968L8.12278 1.49186L8.5148 1.32385L8.90683 1.12223L9.07858 0.999023H9.16818L9.20552 1.05129V1.1745L9.31006 1.46199L9.45193 1.76441L9.63488 2.1079L9.84023 2.45512L10.012 2.67167L10.1949 2.88075L10.3928 3.07863L10.6019 3.27278L10.8035 3.43706L11.076 3.62L11.3598 3.77681L11.6436 3.88882L11.9646 3.97843L12.2073 4.0643L12.2409 4.87075V5.38972L12.3268 5.65481L12.4052 5.93483L12.5097 6.24098L12.6255 6.5322L12.7599 6.80102L12.9727 7.14824L13.1631 7.40586L13.4581 7.70455L13.697 7.92483L13.9808 8.14511L14.2533 8.31312L14.5931 8.48487L14.9515 8.65288L15.3211 8.77609L15.631 8.87316ZM4.46519 12.6366L1.86288 9.93721L2.66934 10.0791L3.62887 10.333L5.68234 10.9975L7.03763 11.6211L7.82915 12.0878L8.50867 12.5395L9.44207 13.331L10.3456 14.4063L10.9803 15.5227L11.335 16.471L11.5329 17.3334L11.6748 18.5207V19.6781L11.5739 19.3832L11.1782 18.5207L10.8683 17.9532L10.5435 17.4007L10.0768 16.6689L9.61008 16.0603L9.08737 15.4368L8.50867 14.873L7.94116 14.4063L7.39232 13.9807L6.62694 13.5289L5.94743 13.163L5.36872 12.9203L4.88709 12.7374L4.46519 12.6366ZM3.46152 18.0132L2.24137 16.2965L2.88212 16.4606L3.63861 16.7163L5.24918 17.3496L6.29938 17.8989L6.90562 18.2926L7.42255 18.6668L8.12079 19.3023L8.77531 20.1371L9.21015 20.9799L9.43071 21.6813L9.53071 22.3095L9.56307 23.164L9.48305 23.9861L9.42213 23.7687L9.1625 23.125L8.95175 22.6976L8.72792 22.2796L8.40203 21.7231L8.06763 21.2542L7.68908 20.7702L7.26122 20.3243L6.83568 19.9483L6.42237 19.6028L5.83617 19.2219L5.31331 18.9086L4.86325 18.6908L4.18211 18.338L3.46152 18.0132ZM-1.36914 12.5098L0.525875 13.9837L1.61388 14.112L2.63326 14.3033L3.13969 14.4357L3.73433 14.6352L4.40412 14.8815L4.88441 15.1136L5.38104 15.3681L5.88746 15.6755L6.34488 16.0155L6.75329 16.3473L7.1617 16.7464L7.44595 17.0477L7.71713 17.3571L8.06347 17.8274L8.15168 17.9882V17.3571L8.02752 16.7097L7.85436 16.2394L7.54397 15.7223L6.98853 15.1136L6.19785 14.5273L5.38104 14.0957L4.78639 13.8494L4.09373 13.5949L2.90771 13.2549L1.11072 12.8925L0.271029 12.7541L-1.36914 12.5098ZM4.12446 19.7358L5.67983 22.1714L5.76212 22.0206L5.86636 21.8724L5.98432 21.7646L6.0721 21.7053C6.08433 21.6982 6.10517 21.6862 6.17634 21.6595C6.2461 21.6334 6.33601 21.6784 6.37371 21.6973L6.38146 21.7011L6.48973 21.7609L6.49809 21.7662C6.51728 21.778 6.54117 21.7927 6.63718 21.9074C6.73004 22.0184 6.80241 22.1658 6.84655 22.2558C6.85702 22.2771 6.8659 22.2952 6.87309 22.3089L7.10626 22.775L7.24616 23.171L7.3504 23.5024L7.45738 23.8716L7.51499 24.308L7.56711 24.8981V25.4801L7.52596 26.0755L7.44367 26.6629L7.34491 27.1263L7.18856 27.7406L7.03494 28.2579L6.85389 28.8049L6.70302 29.1551L6.66187 29.2467L7.09529 28.8049L7.44367 28.363L7.76187 27.8618L7.97584 27.4308L8.16512 26.9269L8.2913 26.477L8.37908 26.0755L8.42571 25.7145V25.3022V24.7257L8.40377 24.4104L8.3105 23.8985L8.18157 23.365L8.03344 23.0121L7.82496 22.546L7.60551 22.1607L7.3312 21.7242L7.05963 21.3685L6.73868 21.0264L6.48905 20.7839L6.21474 20.5575L5.94866 20.3743L5.63868 20.183L5.30402 20.0187L5.0105 19.9055L4.71698 19.8166L4.38781 19.7358L4.16013 19.6927L4.07783 19.6738L4.12446 19.7358ZM6.38881 23.9117L6.43827 23.1504L6.47535 22.8862L6.51216 23.0268L6.57793 23.3724L6.59965 23.6966L6.62116 24.0178L6.65729 24.5572L6.66578 25.2293L6.63242 25.7764L6.61013 26.2162L6.55208 26.6219L6.49566 27.0975L6.43678 27.4453L6.35912 27.831L6.2556 28.1941L6.13836 28.625L6.05323 28.9899L5.99694 29.2402C5.98936 29.3239 5.97098 29.5433 5.95811 29.7511C5.94525 29.959 5.94528 30.0594 5.9469 30.0837L5.96781 30.3958L6.01821 30.6937L6.05626 30.9438L6.1218 31.1951L6.19236 31.3852L6.28454 31.5799L6.35751 31.715L6.44281 31.8524L6.54528 32.019L6.69463 32.2038L6.80881 32.3179L6.97996 32.4647L7.16465 32.5863L7.38024 32.7149L7.59482 32.8284L7.76454 32.9083C7.79822 32.9264 7.8983 32.9694 8.02921 32.9971C8.14596 33.0219 8.18334 33.02 8.19708 33.0192L8.20114 33.0191L8.689 32.9864L8.97687 32.9671L9.13221 32.9232L9.32874 32.8127L9.50386 32.7005L9.68178 32.5394L9.8181 32.3933L9.98288 32.1723L10.0915 31.9306L10.1541 31.7286L10.2031 31.5975L10.2022 31.4484L10.1858 31.2029L10.1761 31.0575L10.1608 30.8302L10.1461 30.746L10.0949 30.5729L10.0348 30.4078L9.95541 30.2626L9.86507 30.1408L9.7118 29.971L9.62096 29.9045L9.39082 29.786L9.28805 29.732C9.26488 29.7194 9.20719 29.7025 9.16231 29.6917C9.12377 29.6825 9.09017 29.6825 9.07342 29.6825L8.931 29.692L8.81585 29.6997C8.80642 29.6997 8.78028 29.7015 8.73505 29.7204C8.71327 29.7295 8.68223 29.7449 8.6538 29.759C8.63407 29.7689 8.61559 29.778 8.60234 29.784L8.47413 29.8553L8.35755 29.9465L8.24586 30.0514L8.14994 30.1644L8.07987 30.2543L8.0199 30.3588L7.96298 30.5087C7.95134 30.547 7.92694 30.6432 7.92244 30.7214C7.92036 30.7995 7.92607 30.9119 7.92918 30.9584L7.92906 31.2293L7.91622 31.4919L7.8956 31.4568L7.83414 31.3117L7.79369 31.1623C7.79207 31.138 7.78097 31.0541 7.74957 30.9126C7.72781 30.8144 7.72916 30.739 7.73079 30.7193L7.72359 30.5247L7.73767 30.3259C7.73767 30.3205 7.73746 30.3157 7.73723 30.3105C7.73619 30.2868 7.73479 30.2551 7.75135 30.1211L7.79482 30.0117L7.79486 30.0116C7.82657 29.9317 7.82992 29.9232 7.83492 29.9146L7.97806 29.6432L8.19232 29.3884L8.36096 29.2249L8.55486 29.1206L8.8003 29.0585L8.80962 29.0564C8.84663 29.0476 8.9445 29.0245 9.20635 29.0313C9.43542 29.0313 9.4782 29.0418 9.50908 29.0493C9.51388 29.0505 9.51839 29.0516 9.52327 29.0525L9.80637 29.1281L10.146 29.291L10.4243 29.4916L10.666 29.7828L10.8412 30.0718L11.0372 30.559L11.1031 30.9923L11.1004 31.3608L11.0783 31.6667L11.0119 31.9481L10.9047 32.2566L10.7888 32.5262L10.6467 32.8127L10.5242 33.0279L10.3838 33.2047C10.3198 33.2637 10.1127 33.4462 9.79629 33.7036C9.65111 33.8045 9.58342 33.8259 9.55095 33.8361L9.54058 33.8395C9.47217 33.8633 9.2819 33.9219 9.06809 33.9655C8.85429 34.009 8.73175 34.0184 8.6972 34.0177C8.66717 34.0238 8.53543 34.0383 8.24873 34.0478C7.94295 34.0578 7.85027 34.0404 7.3874 33.9531L7.38557 33.9528C7.3064 33.9378 7.21642 33.9209 7.11274 33.9016C6.97203 33.8595 6.88469 33.8205 6.83764 33.7952L6.83776 33.7953C6.74057 33.7531 6.46465 33.6054 6.13843 33.3521C5.93797 33.1768 5.84521 33.0643 5.64532 32.7611C5.48327 32.5153 5.44061 32.397 5.31651 32.0529L5.31648 32.0528C5.28751 31.9724 5.25411 31.8798 5.21371 31.7703C5.1397 31.5698 5.12508 31.4905 5.12494 31.4629L5.09291 31.1484L5.05272 30.5484L5.09294 29.9674L5.14534 29.5682L5.39923 28.7689L5.72374 27.7062L5.93295 26.7851L6.1393 25.776L6.27717 24.7897L6.38881 23.9117ZM9.11533 3.98874C9.44525 3.98874 9.7127 4.25619 9.7127 4.58612V4.9087H9.39012C9.0602 4.9087 8.79274 4.64124 8.79274 4.31132V3.98874H9.11533Z" fill="white"/>
<path d="M14.3355 10.2061L14.3271 10.2132C14.3291 10.2156 14.332 10.217 14.3351 10.2171C14.3382 10.2172 14.3412 10.2159 14.3434 10.2137L14.3355 10.2061ZM15.631 8.87316L15.6389 8.88084C15.6416 8.87809 15.6426 8.87417 15.6417 8.87046C15.6408 8.86675 15.638 8.8638 15.6343 8.86265L15.631 8.87316ZM14.0106 9.82896L14.0191 9.82165L14.0175 9.82036L14.0106 9.82896ZM13.529 9.3996L13.5213 9.4075L13.5213 9.4075L13.529 9.3996ZM13.2565 9.16438L13.2501 9.1734C13.2545 9.17647 13.2605 9.17595 13.2642 9.17217L13.2565 9.16438ZM12.9204 8.92917L12.9137 8.93792L12.9141 8.93819L12.9204 8.92917ZM12.6666 8.73502L12.6734 8.72608L12.6713 8.72507L12.6666 8.73502ZM12.4388 8.62674L12.4331 8.63622L12.4341 8.63669L12.4388 8.62674ZM12.2223 8.49607L12.228 8.48663L12.2275 8.48639L12.2223 8.49607ZM12.0132 8.399L12.0097 8.40944L12.0097 8.40944L12.0132 8.399ZM11.8676 8.399V8.41081L11.8716 8.40926L11.8676 8.399ZM10.0344 8.399L10.0332 8.41001H10.0344V8.399ZM9.81783 8.37659L9.81521 8.38739L9.81669 8.38755L9.81783 8.37659ZM9.58634 8.32059L9.58327 8.33118L9.58375 8.33129L9.58634 8.32059ZM8.94417 8.10404L8.95648 8.09789L8.94909 8.09419L8.94417 8.10404ZM8.72015 7.99203L8.714 8.00127L8.71523 8.00188L8.72015 7.99203ZM8.54094 7.87256L8.54706 7.86338L8.54653 7.86307L8.54094 7.87256ZM8.33186 7.74935L8.32554 7.75841L8.32627 7.75884L8.33186 7.74935ZM8.13398 7.61121L8.12641 7.61935L8.12768 7.62024L8.13398 7.61121ZM7.92116 7.41333L7.9136 7.42133L7.91367 7.42139L7.92116 7.41333ZM7.71955 7.22292L7.71088 7.22988L7.71199 7.23092L7.71955 7.22292ZM7.55154 7.01383L7.54188 7.0194L7.54296 7.02073L7.55154 7.01383ZM7.4246 6.79355L7.41486 6.79871L7.41506 6.79905L7.4246 6.79355ZM7.29019 6.53967L7.27939 6.54281L7.28046 6.54482L7.29019 6.53967ZM7.23045 6.33432L7.24102 6.33125C7.23987 6.3273 7.23662 6.32432 7.23259 6.32352C7.22856 6.32272 7.22442 6.32423 7.22185 6.32744L7.23045 6.33432ZM7.15578 6.42766L7.14477 6.41885V6.42766H7.15578ZM7.15578 7.44693H7.14444L7.14509 7.44957L7.15578 7.44693ZM7.23045 7.74935L7.2197 7.75201L7.22009 7.75309L7.23045 7.74935ZM7.36113 8.11151L7.35056 8.11532L7.35171 8.11722L7.36113 8.11151ZM7.55154 8.42513L7.54203 8.4309L7.54304 8.43213L7.55154 8.42513ZM7.76062 8.67902L7.75211 8.68602L7.75245 8.68639L7.76062 8.67902ZM8.0033 8.94783L7.99508 8.95526L7.99598 8.95605L8.0033 8.94783ZM8.31319 9.22412L8.30578 9.23243L8.30719 9.23335L8.31319 9.22412ZM8.67535 9.45934L8.68135 9.45011L8.68135 9.4501L8.67535 9.45934ZM9.13458 9.75802L9.14085 9.74897L9.14058 9.74879L9.13458 9.75802ZM9.51167 10.0194L9.51834 10.0106L9.51795 10.0103L9.51167 10.0194ZM9.8701 10.2919L9.87749 10.2837L9.87676 10.2832L9.8701 10.2919ZM10.2472 10.6317L10.2398 10.6399L10.2399 10.64L10.2472 10.6317ZM10.5533 10.9005L10.5612 10.8928L10.5606 10.8922L10.5533 10.9005ZM10.8856 11.2403L10.8942 11.2332L10.8935 11.2326L10.8856 11.2403ZM11.203 11.6248L11.2119 11.6183L11.2115 11.6178L11.203 11.6248ZM11.5763 12.1326L11.5858 12.1269L11.5852 12.1261L11.5763 12.1326ZM11.7817 12.4723L11.7915 12.4672L11.7911 12.4666L11.7817 12.4723ZM12.043 12.9726L12.0531 12.9681L12.0528 12.9675L12.043 12.9726ZM12.338 13.6335L12.3485 13.63L12.3481 13.629L12.338 13.6335ZM12.5396 14.2309L12.5506 14.229L12.55 14.2273L12.5396 14.2309ZM12.6852 15.1008L12.6963 15.1002L12.6961 15.099L12.6852 15.1008ZM12.7263 15.8886L12.7374 15.8893L12.7373 15.888L12.7263 15.8886ZM12.6852 16.4747L12.6754 16.4798C12.6777 16.4842 12.6826 16.4865 12.6875 16.4855C12.6923 16.4845 12.6959 16.4804 12.6962 16.4755L12.6852 16.4747ZM12.5807 16.2731L12.5905 16.2681L12.5902 16.2675L12.5807 16.2731ZM12.3828 15.9371L12.3923 15.9315L12.3922 15.9314L12.3828 15.9371ZM12.1924 15.6198L12.1828 15.6252L12.1829 15.6254L12.1924 15.6198ZM12.043 15.3584L12.0526 15.3529L12.0526 15.3529L12.043 15.3584ZM11.8601 15.0448L11.8697 15.0392L11.8689 15.0381L11.8601 15.0448ZM11.6137 14.72L11.6046 14.7262L11.6049 14.7266L11.6137 14.72ZM11.3934 14.4026L11.4024 14.3963L11.4024 14.3962L11.3934 14.4026ZM11.1843 14.1077L11.1934 14.1012L11.1921 14.0998L11.1843 14.1077ZM10.9155 13.8426L10.9071 13.8497L10.9078 13.8504L10.9155 13.8426ZM10.6355 13.514L10.6439 13.5069L10.6438 13.5068L10.6355 13.514ZM10.3816 13.2191L10.39 13.2119L10.3895 13.2114L10.3816 13.2191ZM9.9261 12.7486L9.93403 12.741L9.93352 12.7405L9.9261 12.7486ZM9.50421 12.3641L9.51164 12.3559L9.51106 12.3555L9.50421 12.3641ZM9.13831 12.0728L9.13129 12.0813L9.13146 12.0815L9.13831 12.0728ZM8.79109 11.7854L8.79814 11.7768L8.79736 11.7763L8.79109 11.7854ZM8.35426 11.4829L8.36053 11.4739L8.36052 11.4739L8.35426 11.4829ZM7.95477 11.2067L7.96103 11.1976L7.9607 11.1974L7.95477 11.2067ZM7.63368 11.0013L7.63962 10.992L7.63901 10.9917L7.63368 11.0013ZM7.32379 10.8296L7.31828 10.8391L7.31845 10.8392L7.32379 10.8296ZM6.96163 10.6205L6.96715 10.6109L6.96648 10.6106L6.96163 10.6205ZM6.58081 10.4338L6.57571 10.4436L6.57596 10.4437L6.58081 10.4338ZM6.24478 10.2583L6.24991 10.2485L6.24887 10.2481L6.24478 10.2583ZM5.79675 10.0791L5.80084 10.0689L5.80062 10.0688L5.79675 10.0791ZM5.37859 9.9223L5.37468 9.93259L5.37472 9.93261L5.37859 9.9223ZM4.66174 9.64975L4.66567 9.6394L4.66458 9.63911L4.66174 9.64975ZM3.94863 9.45934L3.9457 9.46995L3.94579 9.46997L3.94863 9.45934ZM3.1235 9.23159L3.12644 9.22094L3.12563 9.22078L3.1235 9.23159ZM2.38425 9.08598L2.38639 9.07515L2.38561 9.07505L2.38425 9.08598ZM1.72341 9.00384L1.72477 8.99291L1.72464 8.9929L1.72341 9.00384ZM1.22684 8.94783H1.21583C1.21583 8.95344 1.22004 8.95815 1.22561 8.95878L1.22684 8.94783ZM1.22684 8.89556L1.21583 8.87989V8.89556H1.22684ZM1.36498 8.79849L1.37137 8.80758L1.37245 8.80658L1.36498 8.79849ZM1.6562 8.52967L1.66371 8.53781L1.66446 8.53695L1.6562 8.52967ZM1.96236 8.18245L1.97065 8.18976L1.9712 8.189L1.96236 8.18245ZM2.18637 7.88003L2.19531 7.88665L2.19605 7.88528L2.18637 7.88003ZM2.47012 7.35733L2.48001 7.36269L2.48067 7.36048L2.47012 7.35733ZM2.6008 6.9205L2.61151 6.9237L2.61173 6.9218L2.6008 6.9205ZM2.64187 6.577L2.65288 6.57832V6.577H2.64187ZM2.64187 5.83775H2.65308L2.65268 5.83568L2.64187 5.83775ZM2.57467 5.4868L2.5855 5.48472L2.58535 5.48413L2.57467 5.4868ZM2.51119 5.23291L2.52201 5.23021L2.52133 5.22862L2.51119 5.23291ZM2.33572 4.81848L2.34587 4.81419L2.34564 4.81371L2.33572 4.81848ZM2.14157 4.41526L2.15151 4.41047L2.15113 4.40979L2.14157 4.41526ZM2.00716 4.18004H1.99448L1.9976 4.1855L2.00716 4.18004ZM2.00716 4.0755L2.00527 4.06465C2 4.06557 1.99615 4.07015 1.99615 4.0755H2.00716ZM2.1789 4.04563L2.18081 4.0566L2.18239 4.05608L2.1789 4.04563ZM2.38052 3.97843L2.38401 3.9889L2.38473 3.9886L2.38052 3.97843ZM2.64187 3.87015L2.64611 3.88038L2.64708 3.87985L2.64187 3.87015ZM2.84348 3.76188L2.83883 3.75188L2.83827 3.75218L2.84348 3.76188ZM3.10857 3.63867L3.11329 3.64882L3.11494 3.64765L3.10857 3.63867ZM3.36619 3.45572L3.35989 3.44669L3.35981 3.44675L3.36619 3.45572ZM3.57527 3.31011L3.58164 3.31927L3.58291 3.31804L3.57527 3.31011ZM3.89636 3.00023L3.90402 3.00817L3.90454 3.00759L3.89636 3.00023ZM4.09797 2.77621L4.10615 2.78358L4.10622 2.7835L4.09797 2.77621ZM4.29585 2.5522L4.30413 2.55951L4.3047 2.55874L4.29585 2.5522ZM4.54973 2.20871L4.55869 2.21533L4.55947 2.21384L4.54973 2.20871ZM4.69534 1.93242L4.68577 1.92698L4.6856 1.92729L4.69534 1.93242ZM4.89696 1.57773L4.90661 1.58322L4.90715 1.5819L4.89696 1.57773ZM5.0575 1.1857L5.04737 1.18139L5.04731 1.18153L5.0575 1.1857ZM5.13217 1.01022V0.982103L5.12204 1.00591L5.13217 1.01022ZM5.20684 1.01022L5.21314 0.999213H5.20684V1.01022ZM5.38979 1.11476L5.38429 1.12439L5.38545 1.12489L5.38979 1.11476ZM5.78182 1.28278L5.77747 1.29292L5.77811 1.29314L5.78182 1.28278ZM6.13651 1.40972L6.1328 1.42009L6.1329 1.42012L6.13651 1.40972ZM6.41653 1.50679L6.41291 1.51723L6.41379 1.51746L6.41653 1.50679ZM6.69281 1.57773L6.68999 1.58874H6.69281V1.57773ZM7.68968 1.57773V1.58895L7.69182 1.58853L7.68968 1.57773ZM8.12278 1.49186L8.12497 1.5029L8.12712 1.50198L8.12278 1.49186ZM8.5148 1.32385L8.51915 1.33399L8.51984 1.33364L8.5148 1.32385ZM8.90683 1.12223L8.91192 1.13213L8.91325 1.13118L8.90683 1.12223ZM9.07858 0.999023V0.985472L9.07216 0.990077L9.07858 0.999023ZM9.16818 0.999023L9.1836 0.988013H9.16818V0.999023ZM9.20552 1.05129H9.21905L9.21448 1.04489L9.20552 1.05129ZM9.20552 1.1745H9.1938L9.19517 1.17826L9.20552 1.1745ZM9.31006 1.46199L9.29967 1.46577L9.30009 1.46666L9.31006 1.46199ZM9.45193 1.76441L9.44195 1.76909L9.44222 1.76959L9.45193 1.76441ZM9.63488 2.1079L9.62515 2.11308L9.6254 2.1135L9.63488 2.1079ZM9.84023 2.45512L9.83066 2.46078L9.8316 2.46197L9.84023 2.45512ZM10.012 2.67167L10.0033 2.67852L10.0037 2.67892L10.012 2.67167ZM10.1949 2.88075L10.1866 2.88802L10.1871 2.88854L10.1949 2.88075ZM10.3928 3.07863L10.385 3.08642L10.3853 3.0867L10.3928 3.07863ZM10.6019 3.27278L10.5944 3.28086L10.5949 3.28132L10.6019 3.27278ZM10.8035 3.43706L10.7965 3.44563L10.7974 3.4462L10.8035 3.43706ZM11.076 3.62L11.0699 3.62918L11.0707 3.62964L11.076 3.62ZM11.3598 3.77681L11.3544 3.78653L11.3558 3.78706L11.3598 3.77681ZM11.6436 3.88882L11.6395 3.89912L11.6406 3.89943L11.6436 3.88882ZM11.9646 3.97843L11.9683 3.96802L11.9676 3.96782L11.9646 3.97843ZM12.2073 4.0643L12.2369 4.06307L12.211 4.05392L12.2073 4.0643ZM12.2409 4.87075H12.2519L12.2519 4.8703L12.2409 4.87075ZM12.2409 5.38972H12.2294L12.2304 5.39312L12.2409 5.38972ZM12.3268 5.65481L12.3374 5.65184L12.3373 5.65142L12.3268 5.65481ZM12.4052 5.93483L12.3946 5.9378L12.3948 5.93839L12.4052 5.93483ZM12.5097 6.24098L12.4993 6.24454L12.4995 6.24505L12.5097 6.24098ZM12.6255 6.5322L12.6152 6.53628L12.6156 6.53713L12.6255 6.5322ZM12.7599 6.80102L12.75 6.80596L12.7505 6.80677L12.7599 6.80102ZM12.9727 7.14824L12.9633 7.15402L12.9639 7.15479L12.9727 7.14824ZM13.1631 7.40586L13.1542 7.41247L13.1553 7.4136L13.1631 7.40586ZM13.4581 7.70455L13.4502 7.71229L13.4506 7.71264L13.4581 7.70455ZM13.697 7.92483L13.6895 7.93296L13.6903 7.93353L13.697 7.92483ZM13.9808 8.14511L13.974 8.15386L13.975 8.15449L13.9808 8.14511ZM14.2533 8.31312L14.2475 8.32253L14.2484 8.32295L14.2533 8.31312ZM14.5931 8.48487L14.5881 8.4947L14.5884 8.49484L14.5931 8.48487ZM14.9515 8.65288L14.9468 8.66292L14.948 8.66333L14.9515 8.65288ZM15.3211 8.77609L15.3177 8.78654L15.3178 8.7866L15.3211 8.77609ZM1.86288 9.93721L1.86479 9.92636C1.86009 9.92554 1.8554 9.92783 1.85316 9.93204C1.85092 9.93625 1.85164 9.94142 1.85495 9.94485L1.86288 9.93721ZM4.46519 12.6366L4.45578 12.6457L4.46263 12.6473L4.46519 12.6366ZM2.66934 10.0791L2.67216 10.0684L2.67124 10.0682L2.66934 10.0791ZM3.62887 10.333L3.63226 10.3225L3.63168 10.3223L3.62887 10.333ZM5.68234 10.9975L5.68698 10.9875L5.68573 10.9871L5.68234 10.9975ZM7.03763 11.6211L7.04326 11.6115L7.04224 11.6111L7.03763 11.6211ZM7.82915 12.0878L7.83526 12.0786L7.83475 12.0783L7.82915 12.0878ZM8.50867 12.5395L8.51584 12.5311L8.51476 12.5303L8.50867 12.5395ZM9.44207 13.331L9.45062 13.3239L9.44919 13.3226L9.44207 13.331ZM10.3456 14.4063L10.3553 14.4008L10.354 14.3992L10.3456 14.4063ZM10.9803 15.5227L10.9907 15.5188L10.9899 15.5172L10.9803 15.5227ZM11.335 16.471L11.3458 16.4685L11.3453 16.4671L11.335 16.471ZM11.5329 17.3334L11.5439 17.3321L11.5436 17.331L11.5329 17.3334ZM11.6748 18.5207H11.6858L11.6857 18.5194L11.6748 18.5207ZM11.6748 19.6781L11.6643 19.6817C11.6661 19.6868 11.6712 19.6899 11.6766 19.689C11.6819 19.6881 11.6858 19.6835 11.6858 19.6781H11.6748ZM11.5739 19.3832L11.5844 19.3796L11.584 19.3786L11.5739 19.3832ZM11.1782 18.5207L11.1882 18.5161L11.1878 18.5155L11.1782 18.5207ZM10.8683 17.9532L10.878 17.9479L10.8778 17.9476L10.8683 17.9532ZM10.5435 17.4007L10.553 17.3951L10.5528 17.3947L10.5435 17.4007ZM10.0768 16.6689L10.0861 16.6629L10.0855 16.6622L10.0768 16.6689ZM9.61008 16.0603L9.61882 16.0536L9.61851 16.0532L9.61008 16.0603ZM9.08737 15.4368L9.09585 15.4297L9.09506 15.4289L9.08737 15.4368ZM8.50867 14.873L8.51638 14.8651L8.51566 14.8645L8.50867 14.873ZM7.94116 14.4063L7.94816 14.3978L7.94791 14.3976L7.94116 14.4063ZM7.39232 13.9807L7.39913 13.9719L7.39792 13.9712L7.39232 13.9807ZM6.62694 13.5289L6.63254 13.5194L6.63216 13.5192L6.62694 13.5289ZM5.94743 13.163L5.95267 13.1533L5.95168 13.1529L5.94743 13.163ZM5.36872 12.9203L5.37298 12.9102L5.37263 12.9101L5.36872 12.9203ZM4.88709 12.7374L4.89103 12.727L4.88965 12.7267L4.88709 12.7374ZM2.24137 16.2965L2.2441 16.2858C2.23963 16.2847 2.23491 16.2865 2.23229 16.2903C2.22968 16.2941 2.22972 16.2991 2.2324 16.3029L2.24137 16.2965ZM3.46152 18.0132L3.45113 18.0206L3.457 18.0232L3.46152 18.0132ZM2.88212 16.4606L2.88566 16.4501L2.88485 16.4499L2.88212 16.4606ZM3.63861 16.7163L3.64265 16.706L3.64214 16.7059L3.63861 16.7163ZM5.24918 17.3496L5.25432 17.3398L5.25321 17.3393L5.24918 17.3496ZM6.29938 17.8989L6.3054 17.8896L6.30448 17.8891L6.29938 17.8989ZM6.90562 18.2926L6.91209 18.2836L6.91162 18.2833L6.90562 18.2926ZM7.42255 18.6668L7.43001 18.6586L7.429 18.6579L7.42255 18.6668ZM8.12079 19.3023L8.12957 19.2954L8.1282 19.2942L8.12079 19.3023ZM8.77531 20.1371L8.78527 20.1319L8.78398 20.1303L8.77531 20.1371ZM9.21015 20.9799L9.22081 20.9765L9.21993 20.9748L9.21015 20.9799ZM9.43071 21.6813L9.4417 21.6796L9.44121 21.678L9.43071 21.6813ZM9.53071 22.3095L9.54179 22.3091L9.54158 22.3078L9.53071 22.3095ZM9.56307 23.164L9.57413 23.1651L9.57408 23.1636L9.56307 23.164ZM9.48305 23.9861L9.47245 23.9891C9.47388 23.9942 9.47874 23.9976 9.48402 23.9971C9.4893 23.9966 9.4935 23.9925 9.49401 23.9872L9.48305 23.9861ZM9.42213 23.7687L9.43279 23.7657L9.43234 23.7646L9.42213 23.7687ZM9.1625 23.125L9.17274 23.1209L9.17237 23.1201L9.1625 23.125ZM8.95175 22.6976L8.96163 22.6927L8.96146 22.6924L8.95175 22.6976ZM8.72792 22.2796L8.73764 22.2744L8.73742 22.274L8.72792 22.2796ZM8.40203 21.7231L8.41157 21.7175L8.411 21.7167L8.40203 21.7231ZM8.06763 21.2542L8.0766 21.2478L8.0763 21.2474L8.06763 21.2542ZM7.68908 20.7702L7.69779 20.7634L7.69702 20.7626L7.68908 20.7702ZM7.26122 20.3243L7.26919 20.3167L7.26851 20.3161L7.26122 20.3243ZM6.83568 19.9483L6.84298 19.94L6.84274 19.9398L6.83568 19.9483ZM6.42237 19.6028L6.42948 19.5943L6.42837 19.5936L6.42237 19.6028ZM5.83617 19.2219L5.84218 19.2126L5.84183 19.2124L5.83617 19.2219ZM5.31331 18.9086L5.31899 18.8991L5.31811 18.8987L5.31331 18.9086ZM4.86325 18.6908L4.85819 18.7006L4.85846 18.7007L4.86325 18.6908ZM4.18211 18.338L4.18718 18.3282L4.18663 18.328L4.18211 18.338ZM0.525875 13.9837L0.517976 13.9939L0.524586 13.9947L0.525875 13.9837ZM-1.36914 12.5098L-1.36752 12.4989C-1.37247 12.4981 -1.37729 12.5008 -1.37926 12.5054C-1.38123 12.51 -1.37985 12.5154 -1.3759 12.5185L-1.36914 12.5098ZM1.61388 14.112L1.61591 14.1011L1.61517 14.101L1.61388 14.112ZM2.63326 14.3033L2.63605 14.2927L2.6353 14.2925L2.63326 14.3033ZM3.13969 14.4357L3.1432 14.4252L3.14247 14.425L3.13969 14.4357ZM3.73433 14.6352L3.73814 14.6248L3.73784 14.6247L3.73433 14.6352ZM4.40412 14.8815L4.40894 14.8716L4.40792 14.8712L4.40412 14.8815ZM4.88441 15.1136L4.88943 15.1038L4.8892 15.1037L4.88441 15.1136ZM5.38104 15.3681L5.38677 15.3587L5.38606 15.3583L5.38104 15.3681ZM5.88746 15.6755L5.89406 15.6666L5.89318 15.6661L5.88746 15.6755ZM6.34488 16.0155L6.35183 16.0069L6.35145 16.0067L6.34488 16.0155ZM6.75329 16.3473L6.76102 16.3394L6.76023 16.3388L6.75329 16.3473ZM7.1617 16.7464L7.16972 16.7388L7.16939 16.7385L7.1617 16.7464ZM7.44595 17.0477L7.45424 17.0404L7.45396 17.0401L7.44595 17.0477ZM7.71713 17.3571L7.72603 17.3506L7.72542 17.3499L7.71713 17.3571ZM8.06347 17.8274L8.07321 17.822L8.07233 17.8209L8.06347 17.8274ZM8.15168 17.9882L8.14203 17.9935C8.14445 17.9979 8.14954 18.0001 8.15442 17.9989C8.15929 17.9976 8.16269 17.9932 8.16269 17.9882H8.15168ZM8.15168 17.3571H8.16289L8.1625 17.355L8.15168 17.3571ZM8.02752 16.7097L8.03848 16.7076L8.03786 16.7059L8.02752 16.7097ZM7.85436 16.2394L7.86488 16.2356L7.8638 16.2338L7.85436 16.2394ZM7.54397 15.7223L7.5536 15.7165L7.5521 15.7149L7.54397 15.7223ZM6.98853 15.1136L6.99682 15.106L6.99509 15.1048L6.98853 15.1136ZM6.19785 14.5273L6.20449 14.5183L6.203 14.5176L6.19785 14.5273ZM5.38104 14.0957L5.3862 14.0859L5.38525 14.0855L5.38104 14.0957ZM4.78639 13.8494L4.79061 13.8392L4.79019 13.839L4.78639 13.8494ZM4.09373 13.5949L4.09754 13.5845L4.09677 13.5843L4.09373 13.5949ZM2.90771 13.2549L2.91076 13.2443L2.90989 13.2441L2.90771 13.2549ZM1.11072 12.8925L1.11289 12.8817L1.11251 12.8816L1.11072 12.8925ZM0.271029 12.7541L0.27282 12.7432L0.272651 12.7432L0.271029 12.7541ZM5.67983 22.1714L5.67055 22.1774C5.67264 22.1806 5.67632 22.1826 5.68021 22.1824C5.6841 22.1823 5.68763 22.1801 5.68949 22.1767L5.67983 22.1714ZM4.12446 19.7358L4.13377 19.7298L4.13326 19.7292L4.12446 19.7358ZM5.76212 22.0206L5.75306 22.0142L5.75245 22.0153L5.76212 22.0206ZM5.86636 21.8724L5.85875 21.864L5.85735 21.866L5.86636 21.8724ZM5.98432 21.7646L5.97809 21.7554L5.97689 21.7565L5.98432 21.7646ZM6.0721 21.7053L6.06656 21.6958L6.06593 21.6962L6.0721 21.7053ZM6.17634 21.6595L6.17247 21.6492L6.17247 21.6492L6.17634 21.6595ZM6.37371 21.6973L6.36877 21.7071L6.3688 21.7071L6.37371 21.6973ZM6.38146 21.7011L6.38678 21.6915L6.38636 21.6913L6.38146 21.7011ZM6.48973 21.7609L6.49565 21.7516L6.49505 21.7512L6.48973 21.7609ZM6.49809 21.7662L6.49218 21.7755L6.49233 21.7756L6.49809 21.7662ZM6.63718 21.9074L6.64563 21.9003L6.64563 21.9003L6.63718 21.9074ZM6.84655 22.2558L6.85643 22.251L6.85643 22.2509L6.84655 22.2558ZM6.87309 22.3089L6.88294 22.3039L6.88283 22.3037L6.87309 22.3089ZM7.10626 22.775L7.11672 22.7713L7.11611 22.77L7.10626 22.775ZM7.24616 23.171L7.25667 23.1677L7.25654 23.1674L7.24616 23.171ZM7.3504 23.5024L7.36098 23.4994L7.3609 23.4991L7.3504 23.5024ZM7.45738 23.8716L7.46843 23.8701L7.46796 23.8685L7.45738 23.8716ZM7.51499 24.308L7.52597 24.3071L7.52591 24.3066L7.51499 24.308ZM7.56711 24.8981H7.57816L7.57808 24.8971L7.56711 24.8981ZM7.56711 25.4801L7.57812 25.4808V25.4801H7.56711ZM7.52596 26.0755L7.53689 26.077L7.53695 26.0763L7.52596 26.0755ZM7.44367 26.6629L7.45446 26.6652L7.45457 26.6644L7.44367 26.6629ZM7.34491 27.1263L7.35559 27.129L7.35568 27.1286L7.34491 27.1263ZM7.18856 27.7406L7.19912 27.7437L7.19923 27.7433L7.18856 27.7406ZM7.03494 28.2579L7.0454 28.2614L7.0455 28.261L7.03494 28.2579ZM6.85389 28.8049L6.86404 28.8092L6.86435 28.8083L6.85389 28.8049ZM6.70302 29.1551L6.71306 29.1596L6.71313 29.1595L6.70302 29.1551ZM6.66187 29.2467L6.65183 29.2422C6.64964 29.2471 6.65126 29.2528 6.65566 29.2558C6.66007 29.2588 6.666 29.2582 6.66973 29.2544L6.66187 29.2467ZM7.09529 28.8049L7.1032 28.8126L7.10394 28.8117L7.09529 28.8049ZM7.44367 28.363L7.45236 28.3698L7.45296 28.3689L7.44367 28.363ZM7.76187 27.8618L7.77122 27.8678L7.77174 27.8667L7.76187 27.8618ZM7.97584 27.4308L7.98575 27.4357L7.98615 27.4346L7.97584 27.4308ZM8.16512 26.9269L8.17546 26.9308L8.17572 26.9299L8.16512 26.9269ZM8.2913 26.477L8.30192 26.4799L8.30206 26.4793L8.2913 26.477ZM8.37908 26.0755L8.38988 26.0779L8.39 26.0769L8.37908 26.0755ZM8.42571 25.7145L8.43672 25.7159V25.7145H8.42571ZM8.42571 24.7257H8.43675L8.4367 24.7249L8.42571 24.7257ZM8.40377 24.4104L8.41482 24.4097L8.4146 24.4084L8.40377 24.4104ZM8.3105 23.8985L8.32135 23.8965L8.3212 23.8959L8.3105 23.8985ZM8.18157 23.365L8.19242 23.3624L8.19173 23.3608L8.18157 23.365ZM8.03344 23.0121L8.0436 23.0078L8.04349 23.0076L8.03344 23.0121ZM7.82496 22.546L7.83506 22.5414L7.83453 22.5405L7.82496 22.546ZM7.60551 22.1607L7.61509 22.1552L7.61484 22.1548L7.60551 22.1607ZM7.3312 21.7242L7.34056 21.7183L7.33995 21.7175L7.3312 21.7242ZM7.05963 21.3685L7.06842 21.3618L7.06766 21.361L7.05963 21.3685ZM6.73868 21.0264L6.74672 21.0188L6.74635 21.0185L6.73868 21.0264ZM6.48905 20.7839L6.49675 20.7759L6.49606 20.7754L6.48905 20.7839ZM6.21474 20.5575L6.22177 20.549L6.22098 20.5485L6.21474 20.5575ZM5.94866 20.3743L5.95491 20.3653L5.95444 20.365L5.94866 20.3743ZM5.63868 20.183L5.64449 20.1736L5.64353 20.1731L5.63868 20.183ZM5.30402 20.0187L5.30889 20.0088L5.30798 20.0084L5.30402 20.0187ZM5.0105 19.9055L5.01447 19.8952L5.01369 19.895L5.0105 19.9055ZM4.71698 19.8166L4.72018 19.8061L4.71961 19.8059L4.71698 19.8166ZM4.38781 19.7358L4.39044 19.7251L4.38985 19.725L4.38781 19.7358ZM4.16013 19.6927L4.15766 19.7034L4.15808 19.7035L4.16013 19.6927ZM4.07783 19.6738L4.08029 19.6631C4.07578 19.662 4.07111 19.6639 4.06859 19.6678C4.06608 19.6717 4.06625 19.6767 4.06903 19.6804L4.07783 19.6738ZM6.43827 23.1504L6.42734 23.1489L6.42728 23.1497L6.43827 23.1504ZM6.38881 23.9117L6.39976 23.913L6.3998 23.9124L6.38881 23.9117ZM6.47535 22.8862L6.486 22.8834C6.48468 22.8783 6.47995 22.8749 6.47471 22.8752C6.46947 22.8755 6.46518 22.8795 6.46445 22.8847L6.47535 22.8862ZM6.51216 23.0268L6.52301 23.0247L6.52282 23.024L6.51216 23.0268ZM6.57793 23.3724L6.589 23.3717L6.58875 23.3703L6.57793 23.3724ZM6.59965 23.6966L6.61063 23.6959L6.61063 23.6959L6.59965 23.6966ZM6.62116 24.0178L6.61017 24.0186L6.61017 24.0186L6.62116 24.0178ZM6.65729 24.5572L6.66832 24.5571L6.66828 24.5565L6.65729 24.5572ZM6.66578 25.2293L6.6768 25.23L6.67679 25.2292L6.66578 25.2293ZM6.63242 25.7764L6.62143 25.7757L6.62142 25.7759L6.63242 25.7764ZM6.61013 26.2162L6.62108 26.2178L6.62113 26.2168L6.61013 26.2162ZM6.55208 26.6219L6.54117 26.6203L6.54114 26.6206L6.55208 26.6219ZM6.49566 27.0975L6.50653 27.0993L6.5066 27.0988L6.49566 27.0975ZM6.43678 27.4453L6.44758 27.4475L6.44764 27.4472L6.43678 27.4453ZM6.35912 27.831L6.36975 27.8341L6.36992 27.8332L6.35912 27.831ZM6.2556 28.1941L6.24501 28.1911L6.24498 28.1912L6.2556 28.1941ZM6.13836 28.625L6.12773 28.6221L6.12764 28.6225L6.13836 28.625ZM6.05323 28.9899L6.0425 28.9874L6.04248 28.9875L6.05323 28.9899ZM5.99694 29.2402L5.98611 29.2378L5.98598 29.2392L5.99694 29.2402ZM5.9469 30.0837L5.93592 30.0844L5.93592 30.0844L5.9469 30.0837ZM5.96781 30.3958L5.95677 30.3965L5.95695 30.3976L5.96781 30.3958ZM6.01821 30.6937L6.02909 30.6921L6.02906 30.6919L6.01821 30.6937ZM6.05626 30.9438L6.04532 30.9455L6.04561 30.9466L6.05626 30.9438ZM6.1218 31.1951L6.11109 31.1979L6.11147 31.1989L6.1218 31.1951ZM6.19236 31.3852L6.182 31.389L6.18241 31.3899L6.19236 31.3852ZM6.28454 31.5799L6.27458 31.5846L6.27485 31.5851L6.28454 31.5799ZM6.35751 31.715L6.34781 31.7203L6.34816 31.7208L6.35751 31.715ZM6.44281 31.8524L6.45219 31.8466L6.45216 31.8466L6.44281 31.8524ZM6.54528 32.019L6.53583 32.0248L6.53672 32.0259L6.54528 32.019ZM6.69463 32.2038L6.68602 32.2108L6.68685 32.2116L6.69463 32.2038ZM6.80881 32.3179L6.801 32.3257L6.80164 32.3263L6.80881 32.3179ZM6.97996 32.4647L6.97274 32.4732L6.97391 32.4739L6.97996 32.4647ZM7.16465 32.5863L7.15859 32.5955L7.15901 32.5957L7.16465 32.5863ZM7.38024 32.7149L7.37459 32.7244L7.37509 32.7246L7.38024 32.7149ZM7.59482 32.8284L7.58967 32.8381L7.59013 32.8383L7.59482 32.8284ZM7.76454 32.9083L7.76975 32.8986L7.76923 32.8984L7.76454 32.9083ZM8.02921 32.9971L8.0315 32.9864L8.0315 32.9864L8.02921 32.9971ZM8.19708 33.0192L8.19667 33.0082L8.19652 33.0082L8.19708 33.0192ZM8.20114 33.0191L8.20155 33.0301L8.20187 33.0301L8.20114 33.0191ZM8.689 32.9864L8.68827 32.9754L8.68827 32.9754L8.689 32.9864ZM8.97687 32.9671L8.97762 32.9784L8.97987 32.9777L8.97687 32.9671ZM9.13221 32.9232L9.13529 32.9341L9.13761 32.9328L9.13221 32.9232ZM9.32874 32.8127L9.33415 32.8223L9.33468 32.822L9.32874 32.8127ZM9.50386 32.7005L9.50988 32.7099L9.51125 32.7087L9.50386 32.7005ZM9.68178 32.5394L9.6892 32.5476L9.68984 32.547L9.68178 32.5394ZM9.8181 32.3933L9.8262 32.4009L9.82693 32.3999L9.8181 32.3933ZM9.98288 32.1723L9.99192 32.179L9.99292 32.1768L9.98288 32.1723ZM10.0915 31.9306L10.1016 31.9352L10.102 31.9339L10.0915 31.9306ZM10.1541 31.7286L10.1437 31.7247L10.1435 31.7253L10.1541 31.7286ZM10.2031 31.5975L10.2141 31.6016L10.2141 31.5974L10.2031 31.5975ZM10.2022 31.4484L10.2133 31.4483L10.2132 31.4476L10.2022 31.4484ZM10.1858 31.2029L10.1968 31.2022L10.1968 31.2022L10.1858 31.2029ZM10.1761 31.0575L10.1651 31.0582L10.1651 31.0582L10.1761 31.0575ZM10.1608 30.8302L10.1719 30.8295L10.1717 30.8283L10.1608 30.8302ZM10.1461 30.746L10.157 30.7441L10.1566 30.7429L10.1461 30.746ZM10.0949 30.5729L10.1055 30.5697L10.1052 30.5691L10.0949 30.5729ZM10.0348 30.4078L10.0452 30.404L10.0444 30.4025L10.0348 30.4078ZM9.95541 30.2626L9.96517 30.2573L9.96426 30.256L9.95541 30.2626ZM9.86507 30.1408L9.87396 30.1342L9.87325 30.1334L9.86507 30.1408ZM9.7118 29.971L9.72015 29.9635L9.7183 29.9621L9.7118 29.971ZM9.62096 29.9045L9.62754 29.8955L9.626 29.8947L9.62096 29.9045ZM9.39082 29.786L9.3857 29.7958L9.38578 29.7958L9.39082 29.786ZM9.28805 29.732L9.28277 29.7417L9.28293 29.7418L9.28805 29.732ZM9.16231 29.6917L9.16488 29.681L9.16488 29.681L9.16231 29.6917ZM9.07342 29.6825V29.6714L9.07268 29.6715L9.07342 29.6825ZM8.931 29.692L8.93026 29.681L8.93026 29.681L8.931 29.692ZM8.81585 29.6997V29.7108L8.81659 29.7107L8.81585 29.6997ZM8.73505 29.7204L8.73929 29.7305L8.73929 29.7305L8.73505 29.7204ZM8.6538 29.759L8.65871 29.7689L8.65871 29.7689L8.6538 29.759ZM8.60234 29.784L8.59778 29.774L8.597 29.7744L8.60234 29.784ZM8.47413 29.8553L8.46872 29.8455L8.46734 29.8466L8.47413 29.8553ZM8.35755 29.9465L8.35073 29.9378L8.35001 29.9385L8.35755 29.9465ZM8.24586 30.0514L8.23828 30.0433L8.23747 30.0443L8.24586 30.0514ZM8.14994 30.1644L8.14154 30.1573L8.14126 30.1576L8.14994 30.1644ZM8.07987 30.2543L8.0711 30.2475L8.07032 30.2488L8.07987 30.2543ZM8.0199 30.3588L8.01023 30.3532L8.00961 30.3549L8.0199 30.3588ZM7.96298 30.5087L7.95266 30.5048L7.95244 30.5055L7.96298 30.5087ZM7.92244 30.7214L7.91144 30.7208L7.91143 30.7211L7.92244 30.7214ZM7.92918 30.9584L7.94022 30.9584L7.94017 30.9577L7.92918 30.9584ZM7.92906 31.2293L7.94008 31.2298L7.94008 31.2293L7.92906 31.2293ZM7.91622 31.4919L7.90672 31.4975C7.90918 31.5017 7.91411 31.5038 7.91884 31.5026C7.92357 31.5015 7.92698 31.4973 7.92722 31.4925L7.91622 31.4919ZM7.8956 31.4568L7.88538 31.4611L7.8861 31.4623L7.8956 31.4568ZM7.83414 31.3117L7.82341 31.3146L7.824 31.316L7.83414 31.3117ZM7.79369 31.1623L7.78249 31.163L7.78306 31.1651L7.79369 31.1623ZM7.74957 30.9126L7.73882 30.915L7.73882 30.915L7.74957 30.9126ZM7.73079 30.7193L7.74184 30.7203L7.74179 30.7189L7.73079 30.7193ZM7.72359 30.5247L7.71255 30.5239L7.71259 30.5251L7.72359 30.5247ZM7.73767 30.3259L7.74868 30.3267V30.3259H7.73767ZM7.73723 30.3105L7.72623 30.311L7.72623 30.311L7.73723 30.3105ZM7.75135 30.1211L7.74077 30.1169L7.74042 30.1197L7.75135 30.1211ZM7.79482 30.0117L7.80506 30.0157L7.80508 30.0157L7.79482 30.0117ZM7.79486 30.0116L7.78463 30.0075L7.78461 30.0076L7.79486 30.0116ZM7.83492 29.9146L7.84446 29.9201L7.84465 29.9197L7.83492 29.9146ZM7.97806 29.6432L7.96944 29.636L7.96832 29.6381L7.97806 29.6432ZM8.19232 29.3884L8.18462 29.3805L8.1839 29.3813L8.19232 29.3884ZM8.36096 29.2249L8.35554 29.2149L8.35329 29.217L8.36096 29.2249ZM8.55486 29.1206L8.55208 29.1096L8.54965 29.1109L8.55486 29.1206ZM8.8003 29.0585L8.79784 29.0478L8.7976 29.0479L8.8003 29.0585ZM8.80962 29.0564L8.81208 29.0671L8.81216 29.0671L8.80962 29.0564ZM9.20635 29.0313L9.20606 29.0423H9.20635V29.0313ZM9.50908 29.0493L9.50647 29.06L9.50647 29.06L9.50908 29.0493ZM9.52327 29.0525L9.52611 29.0419L9.52543 29.0417L9.52327 29.0525ZM9.80637 29.1281L9.81122 29.118L9.80921 29.1175L9.80637 29.1281ZM10.146 29.291L10.1526 29.282L10.1508 29.2811L10.146 29.291ZM10.4243 29.4916L10.433 29.4843L10.4307 29.4826L10.4243 29.4916ZM10.666 29.7828L10.6755 29.777L10.6744 29.7758L10.666 29.7828ZM10.8412 30.0718L10.8516 30.0676L10.8506 30.0661L10.8412 30.0718ZM11.0372 30.559L11.0484 30.5573L11.0474 30.5549L11.0372 30.559ZM11.1031 30.9923L11.1143 30.9924L11.114 30.9907L11.1031 30.9923ZM11.1004 31.3608L11.1114 31.3616L11.1114 31.3609L11.1004 31.3608ZM11.0783 31.6667L11.0891 31.6692L11.0892 31.6675L11.0783 31.6667ZM11.0119 31.9481L11.0223 31.9518L11.0226 31.9506L11.0119 31.9481ZM10.9047 32.2566L10.9149 32.261L10.9151 32.2602L10.9047 32.2566ZM10.7888 32.5262L10.7987 32.5311L10.799 32.5305L10.7888 32.5262ZM10.6467 32.8127L10.6563 32.8181L10.6566 32.8176L10.6467 32.8127ZM10.5242 33.0279L10.5329 33.0348L10.5337 33.0333L10.5242 33.0279ZM10.3838 33.2047L10.3914 33.2129L10.3924 33.2115L10.3838 33.2047ZM9.79629 33.7036L9.80259 33.7127L9.80324 33.7122L9.79629 33.7036ZM9.55095 33.8361L9.54764 33.8256L9.54755 33.8256L9.55095 33.8361ZM9.54058 33.8395L9.53717 33.829L9.53695 33.8291L9.54058 33.8395ZM8.6972 34.0177L8.69744 34.0064L8.69502 34.0069L8.6972 34.0177ZM8.24873 34.0478L8.2491 34.0588L8.2491 34.0588L8.24873 34.0478ZM7.3874 33.9531L7.38944 33.9423L7.38943 33.9423L7.3874 33.9531ZM7.38557 33.9528L7.38353 33.9636L7.38354 33.9636L7.38557 33.9528ZM7.11274 33.9016L7.10956 33.9123L7.11073 33.9125L7.11274 33.9016ZM6.83764 33.7952L6.84286 33.7855C6.83787 33.7828 6.83164 33.7843 6.82849 33.7891C6.82534 33.7938 6.82628 33.8001 6.83068 33.8037L6.83764 33.7952ZM6.83776 33.7953L6.83337 33.8054C6.83841 33.8076 6.8443 33.8057 6.84716 33.801C6.85002 33.7963 6.84898 33.7902 6.84472 33.7867L6.83776 33.7953ZM6.13843 33.3521L6.13117 33.3604L6.13168 33.3608L6.13843 33.3521ZM5.64532 32.7611L5.65451 32.755L5.65451 32.755L5.64532 32.7611ZM5.31651 32.0529L5.30614 32.0566L5.30615 32.0566L5.31651 32.0529ZM5.31648 32.0528L5.32685 32.0491L5.32684 32.049L5.31648 32.0528ZM5.21371 31.7703L5.20338 31.7742L5.20338 31.7742L5.21371 31.7703ZM5.12494 31.4629L5.136 31.4628L5.1359 31.4618L5.12494 31.4629ZM5.09291 31.1484L5.08191 31.1491L5.08195 31.1495L5.09291 31.1484ZM5.05272 30.5484L5.04163 30.5476L5.04173 30.5491L5.05272 30.5484ZM5.09294 29.9674L5.082 29.9659L5.08196 29.9666L5.09294 29.9674ZM5.14534 29.5682L5.13468 29.5648L5.13442 29.5667L5.14534 29.5682ZM5.39923 28.7689L5.40973 28.7722L5.40976 28.7721L5.39923 28.7689ZM5.72374 27.7062L5.7343 27.7094L5.73448 27.7086L5.72374 27.7062ZM5.93295 26.7851L5.94369 26.7875L5.94374 26.7873L5.93295 26.7851ZM6.1393 25.776L6.15011 25.7782L6.1502 25.7775L6.1393 25.776ZM6.27717 24.7897L6.28807 24.7912L6.28809 24.7911L6.27717 24.7897ZM9.7127 4.9087V4.91971C9.71878 4.91971 9.72371 4.91478 9.72371 4.9087H9.7127ZM8.79274 3.98874V3.97773C8.78666 3.97773 8.78173 3.98266 8.78173 3.98874H8.79274ZM14.3434 10.2137L15.6389 8.88084L15.6231 8.86549L14.3276 10.1984L14.3434 10.2137ZM14.0023 9.83615L14.3271 10.2132L14.3438 10.1989L14.019 9.82177L14.0023 9.83615ZM13.5213 9.4075C13.7277 9.60789 13.9289 9.77762 14.0038 9.83756L14.0175 9.82036C13.9431 9.76082 13.7425 9.59155 13.5367 9.3917L13.5213 9.4075ZM13.2642 9.17217C13.2611 9.17531 13.2575 9.17501 13.2571 9.17497C13.2564 9.17491 13.2563 9.17476 13.2571 9.17509C13.2587 9.17572 13.2616 9.17721 13.2662 9.18017C13.2754 9.186 13.2896 9.19648 13.3103 9.21357C13.3517 9.24771 13.4184 9.30753 13.5213 9.4075L13.5367 9.3917C13.4335 9.29155 13.3664 9.23127 13.3243 9.19658C13.3033 9.17927 13.2883 9.16815 13.2781 9.16161C13.273 9.15839 13.2687 9.15601 13.2652 9.15461C13.2635 9.15393 13.2613 9.15324 13.2591 9.15304C13.2571 9.15286 13.2524 9.15283 13.2487 9.1566L13.2642 9.17217ZM12.9141 8.93819L13.2501 9.1734L13.2628 9.15536L12.9268 8.92015L12.9141 8.93819ZM12.6599 8.74377L12.9138 8.93791L12.9271 8.92042L12.6732 8.72627L12.6599 8.74377ZM12.4341 8.63669L12.6618 8.74496L12.6713 8.72507L12.4435 8.6168L12.4341 8.63669ZM12.2166 8.5055L12.4331 8.63617L12.4445 8.61732L12.2279 8.48664L12.2166 8.5055ZM12.0097 8.40944C12.0714 8.43001 12.1734 8.48209 12.217 8.50575L12.2275 8.48639C12.184 8.46276 12.0804 8.4098 12.0167 8.38855L12.0097 8.40944ZM11.8716 8.40926C11.8921 8.40127 11.9499 8.38951 12.0097 8.40944L12.0167 8.38855C11.951 8.36667 11.8878 8.3793 11.8636 8.38873L11.8716 8.40926ZM10.4451 8.41001H11.8676V8.38799H10.4451V8.41001ZM10.0344 8.41001H10.4451V8.38799H10.0344V8.41001ZM9.81669 8.38755L10.0332 8.40995L10.0355 8.38804L9.81896 8.36564L9.81669 8.38755ZM9.58375 8.33129L9.81524 8.3873L9.82042 8.36589L9.58893 8.30989L9.58375 8.33129ZM9.14977 8.19663C9.31125 8.25045 9.50604 8.30874 9.58327 8.33116L9.58941 8.31002C9.51232 8.28764 9.31783 8.22944 9.15673 8.17574L9.14977 8.19663ZM8.93432 8.10897C8.93541 8.11114 8.93696 8.11263 8.93778 8.11337C8.93878 8.11428 8.93991 8.11512 8.94105 8.11589C8.94333 8.11745 8.94634 8.1192 8.95009 8.12117C8.95762 8.12512 8.96889 8.13033 8.98494 8.13699C9.01707 8.15032 9.06899 8.1697 9.14977 8.19663L9.15673 8.17574C9.07621 8.1489 9.02484 8.1297 8.99338 8.11665C8.97763 8.11011 8.96703 8.10518 8.96032 8.10167C8.95695 8.0999 8.95475 8.09858 8.95345 8.0977C8.95314 8.09748 8.95291 8.09732 8.95275 8.09719C8.95258 8.09707 8.95252 8.09701 8.95253 8.09702C8.95253 8.09702 8.95268 8.09715 8.95291 8.09742C8.95311 8.09766 8.95357 8.09823 8.95401 8.09912L8.93432 8.10897ZM8.71523 8.00188L8.93924 8.11389L8.94909 8.09419L8.72508 7.98219L8.71523 8.00188ZM8.53483 7.88172L8.71404 8.0012L8.72626 7.98287L8.54705 7.8634L8.53483 7.88172ZM8.32627 7.75884L8.53535 7.88205L8.54653 7.86307L8.33745 7.73987L8.32627 7.75884ZM8.12768 7.62024L8.32555 7.75838L8.33816 7.74032L8.14028 7.60218L8.12768 7.62024ZM7.91367 7.42139L8.12648 7.61927L8.14148 7.60315L7.92866 7.40527L7.91367 7.42139ZM7.71199 7.23092L7.9136 7.42133L7.92872 7.40532L7.72711 7.21491L7.71199 7.23092ZM7.54296 7.02073L7.71097 7.22981L7.72813 7.21602L7.56012 7.00694L7.54296 7.02073ZM7.41506 6.79905L7.542 7.01933L7.56108 7.00834L7.43414 6.78806L7.41506 6.79905ZM7.28046 6.54482L7.41487 6.7987L7.43433 6.7884L7.29992 6.53452L7.28046 6.54482ZM7.21988 6.3374L7.27961 6.54274L7.30076 6.53659L7.24102 6.33125L7.21988 6.3374ZM7.16438 6.43454L7.23905 6.3412L7.22185 6.32744L7.14718 6.42078L7.16438 6.43454ZM7.16679 6.63301V6.42766H7.14477V6.63301H7.16679ZM7.16679 6.9541V6.63301H7.14477V6.9541H7.16679ZM7.16679 7.44693V6.9541H7.14477V7.44693H7.16679ZM7.24114 7.74671L7.16647 7.44429L7.14509 7.44957L7.21976 7.75199L7.24114 7.74671ZM7.37148 8.10777L7.24081 7.74561L7.22009 7.75309L7.35077 8.11525L7.37148 8.10777ZM7.56095 8.41942L7.37054 8.1058L7.35171 8.11722L7.54213 8.43085L7.56095 8.41942ZM7.76912 8.67202L7.56004 8.41813L7.54304 8.43213L7.75212 8.68601L7.76912 8.67202ZM8.01148 8.94046L7.76879 8.67164L7.75245 8.68639L7.99513 8.95521L8.01148 8.94046ZM8.32052 9.2159L8.01063 8.93961L7.99598 8.95605L8.30586 9.23234L8.32052 9.2159ZM8.68135 9.4501L8.31919 9.21489L8.30719 9.23335L8.66935 9.46857L8.68135 9.4501ZM9.14058 9.74879L8.68135 9.45011L8.66934 9.46857L9.12858 9.76725L9.14058 9.74879ZM9.51795 10.0103L9.14085 9.74897L9.12831 9.76707L9.5054 10.0284L9.51795 10.0103ZM9.87676 10.2832L9.51834 10.0106L9.50501 10.0281L9.86343 10.3007L9.87676 10.2832ZM10.2546 10.6235L9.87747 10.2837L9.86273 10.3001L10.2398 10.6399L10.2546 10.6235ZM10.5606 10.8922L10.2545 10.6234L10.2399 10.64L10.5461 10.9088L10.5606 10.8922ZM10.8935 11.2326L10.5612 10.8928L10.5455 10.9082L10.8778 11.248L10.8935 11.2326ZM11.2115 11.6178L10.8941 11.2332L10.8771 11.2473L11.1945 11.6318L11.2115 11.6178ZM11.5852 12.1261L11.2119 11.6183L11.1941 11.6313L11.5675 12.1391L11.5852 12.1261ZM11.7911 12.4666L11.5858 12.1269L11.5669 12.1383L11.7723 12.478L11.7911 12.4666ZM12.0528 12.9675L11.7915 12.4672L11.7719 12.4774L12.0333 12.9777L12.0528 12.9675ZM12.3481 13.629L12.0531 12.9682L12.033 12.9771L12.3279 13.638L12.3481 13.629ZM12.55 14.2273L12.3484 13.63L12.3276 13.637L12.5292 14.2344L12.55 14.2273ZM12.6961 15.099L12.5505 14.229L12.5288 14.2327L12.6744 15.1026L12.6961 15.099ZM12.7373 15.888L12.6962 15.1002L12.6742 15.1014L12.7153 15.8891L12.7373 15.888ZM12.6962 16.4755L12.7373 15.8893L12.7153 15.8878L12.6742 16.474L12.6962 16.4755ZM12.5709 16.2782L12.6754 16.4798L12.695 16.4697L12.5905 16.2681L12.5709 16.2782ZM12.3733 15.9427L12.5712 16.2787L12.5902 16.2675L12.3923 15.9315L12.3733 15.9427ZM12.1829 15.6254L12.3734 15.9428L12.3922 15.9314L12.2018 15.6141L12.1829 15.6254ZM12.0335 15.3639L12.1828 15.6252L12.2019 15.6143L12.0526 15.3529L12.0335 15.3639ZM11.8506 15.0503L12.0335 15.364L12.0526 15.3529L11.8696 15.0392L11.8506 15.0503ZM11.6049 14.7266L11.8513 15.0514L11.8689 15.0381L11.6225 14.7133L11.6049 14.7266ZM11.3844 14.4089L11.6046 14.7262L11.6227 14.7137L11.4024 14.3963L11.3844 14.4089ZM11.1753 14.114L11.3844 14.409L11.4024 14.3962L11.1933 14.1013L11.1753 14.114ZM10.9078 13.8504L11.1766 14.1155L11.1921 14.0998L10.9232 13.8347L10.9078 13.8504ZM10.6271 13.5212L10.9071 13.8497L10.9239 13.8354L10.6439 13.5069L10.6271 13.5212ZM10.3733 13.2262L10.6271 13.5212L10.6438 13.5068L10.3899 13.2119L10.3733 13.2262ZM9.91819 12.7563L10.3737 13.2267L10.3895 13.2114L9.93401 12.741L9.91819 12.7563ZM9.49679 12.3722L9.91868 12.7568L9.93352 12.7405L9.51162 12.3559L9.49679 12.3722ZM9.13146 12.0815L9.49735 12.3727L9.51106 12.3555L9.14517 12.0642L9.13146 12.0815ZM8.78407 11.7938L9.13129 12.0813L9.14534 12.0644L8.79811 11.7769L8.78407 11.7938ZM8.34799 11.492L8.78482 11.7944L8.79736 11.7763L8.36053 11.4739L8.34799 11.492ZM7.9485 11.2157L8.348 11.492L8.36052 11.4739L7.96103 11.1976L7.9485 11.2157ZM7.62774 11.0106L7.94883 11.2159L7.9607 11.1974L7.63961 10.992L7.62774 11.0106ZM7.31845 10.8392L7.62834 11.0109L7.63901 10.9917L7.32913 10.8199L7.31845 10.8392ZM6.95613 10.63L7.31828 10.8391L7.32929 10.82L6.96714 10.6109L6.95613 10.63ZM6.57596 10.4437L6.95678 10.6304L6.96648 10.6106L6.58565 10.4239L6.57596 10.4437ZM6.23969 10.2681L6.57571 10.4436L6.5859 10.424L6.24988 10.2486L6.23969 10.2681ZM5.79266 10.0893L6.24069 10.2685L6.24887 10.2481L5.80084 10.0689L5.79266 10.0893ZM5.37472 9.93261L5.79289 10.0894L5.80062 10.0688L5.38246 9.91199L5.37472 9.93261ZM4.65783 9.66004L5.37468 9.93259L5.3825 9.91201L4.66565 9.63946L4.65783 9.66004ZM3.94579 9.46997L4.6589 9.66039L4.66458 9.63911L3.95147 9.4487L3.94579 9.46997ZM3.12057 9.2422L3.9457 9.46995L3.95156 9.44872L3.12643 9.22097L3.12057 9.2422ZM2.38212 9.09678L3.12137 9.24239L3.12563 9.22078L2.38638 9.07517L2.38212 9.09678ZM1.72205 9.01476L2.38289 9.0969L2.38561 9.07505L1.72476 8.99291L1.72205 9.01476ZM1.22561 8.95878L1.72217 9.01478L1.72464 8.9929L1.22807 8.93689L1.22561 8.95878ZM1.21583 8.89556V8.94783H1.23785V8.89556H1.21583ZM1.35865 8.78948L1.22051 8.88655L1.23317 8.90457L1.37131 8.8075L1.35865 8.78948ZM1.64873 8.52158L1.35751 8.7904L1.37245 8.80658L1.66367 8.53776L1.64873 8.52158ZM1.9541 8.17517L1.64794 8.52239L1.66446 8.53695L1.97062 8.18973L1.9541 8.17517ZM2.17752 7.87347L1.95351 8.17589L1.9712 8.189L2.19522 7.88658L2.17752 7.87347ZM2.46045 7.35207L2.17669 7.87477L2.19605 7.88528L2.4798 7.36258L2.46045 7.35207ZM2.59025 6.91734L2.45958 7.35417L2.48067 7.36048L2.61135 6.92365L2.59025 6.91734ZM2.63094 6.5757L2.58987 6.91919L2.61173 6.9218L2.6528 6.57831L2.63094 6.5757ZM2.63086 5.83775V6.577H2.65288V5.83775H2.63086ZM2.56385 5.48887L2.63106 5.83983L2.65268 5.83568L2.58548 5.48473L2.56385 5.48887ZM2.50051 5.23558L2.56398 5.48947L2.58535 5.48413L2.52188 5.23024L2.50051 5.23558ZM2.32558 4.82278L2.50105 5.23721L2.52133 5.22862L2.34585 4.81419L2.32558 4.82278ZM2.13165 4.42003L2.32579 4.82326L2.34564 4.81371L2.15149 4.41048L2.13165 4.42003ZM1.9976 4.1855L2.13201 4.42072L2.15113 4.40979L2.01672 4.17458L1.9976 4.1855ZM1.99615 4.0755V4.18004H2.01817V4.0755H1.99615ZM2.17702 4.03478L2.00527 4.06465L2.00905 4.08635L2.18079 4.05648L2.17702 4.03478ZM2.37704 3.96798L2.17542 4.03519L2.18239 4.05608L2.384 3.98887L2.37704 3.96798ZM2.63766 3.85998L2.3763 3.96825L2.38473 3.9886L2.64608 3.88033L2.63766 3.85998ZM2.83827 3.75218L2.63666 3.86045L2.64708 3.87985L2.84869 3.77158L2.83827 3.75218ZM3.10393 3.62869L2.83884 3.75189L2.84812 3.77186L3.11321 3.64866L3.10393 3.62869ZM3.35981 3.44675L3.10219 3.62969L3.11494 3.64765L3.37256 3.4647L3.35981 3.44675ZM3.56897 3.30108L3.35989 3.44669L3.37248 3.46476L3.58156 3.31915L3.56897 3.30108ZM3.88871 2.9923L3.56762 3.30219L3.58291 3.31804L3.904 3.00815L3.88871 2.9923ZM4.08978 2.76885L3.88817 2.99286L3.90454 3.00759L4.10615 2.78358L4.08978 2.76885ZM4.2876 2.54491L4.08972 2.76892L4.10622 2.7835L4.3041 2.55949L4.2876 2.54491ZM4.54088 2.20216L4.28699 2.54565L4.3047 2.55874L4.55859 2.21525L4.54088 2.20216ZM4.6856 1.92729L4.53999 2.20357L4.55947 2.21384L4.70508 1.93755L4.6856 1.92729ZM4.88738 1.57229L4.68577 1.92698L4.70492 1.93786L4.90653 1.58317L4.88738 1.57229ZM5.04731 1.18153L4.88677 1.57356L4.90715 1.5819L5.06769 1.18988L5.04731 1.18153ZM5.12204 1.00591L5.04737 1.18139L5.06763 1.19001L5.1423 1.01454L5.12204 1.00591ZM5.20684 0.999213H5.13217V1.02124H5.20684V0.999213ZM5.39525 1.1052L5.21231 1.00066L5.20138 1.01978L5.38433 1.12432L5.39525 1.1052ZM5.78615 1.27266L5.39413 1.10464L5.38545 1.12489L5.77748 1.2929L5.78615 1.27266ZM6.14022 1.39935L5.78553 1.27241L5.77811 1.29314L6.1328 1.42009L6.14022 1.39935ZM6.42013 1.49639L6.14011 1.39931L6.1329 1.42012L6.41292 1.51719L6.42013 1.49639ZM6.69555 1.56706L6.41927 1.49613L6.41379 1.51746L6.69007 1.58839L6.69555 1.56706ZM7.10351 1.56672H6.69281V1.58874H7.10351V1.56672ZM7.68968 1.56672H7.10351V1.58874H7.68968V1.56672ZM8.12064 1.48106L7.68754 1.56693L7.69182 1.58853L8.12492 1.50266L8.12064 1.48106ZM8.51047 1.31373L8.11844 1.48174L8.12712 1.50198L8.51914 1.33397L8.51047 1.31373ZM8.90179 1.11244L8.50977 1.31405L8.51984 1.33364L8.91187 1.13202L8.90179 1.11244ZM9.07216 0.990077L8.90041 1.11329L8.91325 1.13118L9.08499 1.00797L9.07216 0.990077ZM9.16818 0.988013H9.07858V1.01003H9.16818V0.988013ZM9.21448 1.04489L9.17714 0.992624L9.15922 1.00542L9.19656 1.05769L9.21448 1.04489ZM9.21653 1.1745V1.05129H9.19451V1.1745H9.21653ZM9.32041 1.45823L9.21587 1.17074L9.19517 1.17826L9.29971 1.46575L9.32041 1.45823ZM9.4619 1.75973L9.32003 1.45731L9.30009 1.46666L9.44197 1.76909L9.4619 1.75973ZM9.6446 2.10272L9.46165 1.75923L9.44222 1.76959L9.62516 2.11308L9.6446 2.10272ZM9.8497 2.44952L9.64436 2.10229L9.6254 2.1135L9.83075 2.46073L9.8497 2.44952ZM10.0206 2.66483L9.84885 2.44828L9.8316 2.46197L10.0033 2.67851L10.0206 2.66483ZM10.2032 2.8735L10.0203 2.66442L10.0037 2.67892L10.1866 2.888L10.2032 2.8735ZM10.4006 3.07085L10.2027 2.87297L10.1871 2.88854L10.385 3.08642L10.4006 3.07085ZM10.6094 3.26471L10.4003 3.07056L10.3853 3.0867L10.5944 3.28085L10.6094 3.26471ZM10.8104 3.42852L10.6088 3.26424L10.5949 3.28132L10.7965 3.44559L10.8104 3.42852ZM11.0822 3.61086L10.8096 3.42791L10.7974 3.4462L11.0699 3.62915L11.0822 3.61086ZM11.3651 3.76718L11.0814 3.61037L11.0707 3.62964L11.3545 3.78645L11.3651 3.76718ZM11.6476 3.87858L11.3638 3.76657L11.3558 3.78706L11.6395 3.89906L11.6476 3.87858ZM11.9676 3.96782L11.6465 3.87822L11.6406 3.89943L11.9617 3.98903L11.9676 3.96782ZM12.211 4.05392L11.9683 3.96805L11.961 3.98881L12.2037 4.07468L12.211 4.05392ZM12.2519 4.8703L12.2183 4.06384L12.1963 4.06476L12.2299 4.87121L12.2519 4.8703ZM12.2519 5.38972V4.87075H12.2299V5.38972H12.2519ZM12.3373 5.65142L12.2514 5.38633L12.2304 5.39312L12.3163 5.6582L12.3373 5.65142ZM12.4158 5.93186L12.3374 5.65184L12.3162 5.65778L12.3946 5.9378L12.4158 5.93186ZM12.5202 6.23742L12.4156 5.93127L12.3948 5.93839L12.4993 6.24454L12.5202 6.23742ZM12.6357 6.52814L12.52 6.23692L12.4995 6.24505L12.6153 6.53627L12.6357 6.52814ZM12.7697 6.7961L12.6353 6.52728L12.6156 6.53713L12.75 6.80594L12.7697 6.7961ZM12.9821 7.14249L12.7693 6.79527L12.7505 6.80677L12.9633 7.154L12.9821 7.14249ZM13.172 7.39932L12.9816 7.1417L12.9639 7.15479L13.1543 7.41241L13.172 7.39932ZM13.4659 7.69681L13.171 7.39812L13.1553 7.4136L13.4502 7.71229L13.4659 7.69681ZM13.7045 7.91673L13.4655 7.69645L13.4506 7.71264L13.6896 7.93293L13.7045 7.91673ZM13.9875 8.13641L13.7038 7.91613L13.6903 7.93353L13.974 8.15381L13.9875 8.13641ZM14.2591 8.30375L13.9866 8.13574L13.975 8.15449L14.2476 8.3225L14.2591 8.30375ZM14.5981 8.47504L14.2583 8.3033L14.2484 8.32295L14.5881 8.4947L14.5981 8.47504ZM14.9562 8.64291L14.5978 8.4749L14.5884 8.49484L14.9468 8.66285L14.9562 8.64291ZM15.3246 8.76564L14.955 8.64243L14.948 8.66333L15.3177 8.78653L15.3246 8.76564ZM15.6343 8.86265L15.3244 8.76558L15.3178 8.7866L15.6277 8.88367L15.6343 8.86265ZM1.85495 9.94485L4.45726 12.6442L4.47312 12.629L1.87081 9.92957L1.85495 9.94485ZM2.67124 10.0682L1.86479 9.92636L1.86097 9.94805L2.66743 10.0899L2.67124 10.0682ZM3.63168 10.3223L2.67215 10.0684L2.66652 10.0897L3.62605 10.3436L3.63168 10.3223ZM5.68573 10.9871L3.63226 10.3225L3.62548 10.3434L5.67895 11.008L5.68573 10.9871ZM7.04224 11.6111L5.68694 10.9875L5.67774 11.0076L7.03303 11.6311L7.04224 11.6111ZM7.83475 12.0783L7.04323 11.6116L7.03204 11.6305L7.82356 12.0972L7.83475 12.0783ZM8.51476 12.5303L7.83525 12.0786L7.82306 12.0969L8.50257 12.5487L8.51476 12.5303ZM9.44919 13.3226L8.51579 12.5311L8.50155 12.5479L9.43494 13.3394L9.44919 13.3226ZM10.354 14.3992L9.4505 13.324L9.43364 13.3381L10.3372 14.4134L10.354 14.3992ZM10.9899 15.5172L10.3552 14.4009L10.336 14.4118L10.9707 15.5281L10.9899 15.5172ZM11.3453 16.4671L10.9906 15.5188L10.97 15.5265L11.3247 16.4748L11.3453 16.4671ZM11.5436 17.331L11.3457 16.4685L11.3243 16.4735L11.5221 17.3359L11.5436 17.331ZM11.6857 18.5194L11.5438 17.3321L11.5219 17.3348L11.6638 18.522L11.6857 18.5194ZM11.6858 19.6781V18.5207H11.6637V19.6781H11.6858ZM11.5635 19.3867L11.6643 19.6817L11.6852 19.6746L11.5844 19.3796L11.5635 19.3867ZM11.1682 18.5253L11.5639 19.3878L11.584 19.3786L11.1882 18.5161L11.1682 18.5253ZM10.8586 17.9585L11.1685 18.526L11.1878 18.5155L10.878 17.9479L10.8586 17.9585ZM10.534 17.4062L10.8588 17.9588L10.8778 17.9476L10.553 17.3951L10.534 17.4062ZM10.0675 16.6748L10.5342 17.4066L10.5528 17.3947L10.0861 16.6629L10.0675 16.6748ZM9.60134 16.067L10.068 16.6756L10.0855 16.6622L9.61881 16.0536L9.60134 16.067ZM9.07894 15.4439L9.60164 16.0674L9.61851 16.0532L9.09581 15.4297L9.07894 15.4439ZM8.50098 14.8809L9.07969 15.4447L9.09506 15.4289L8.51635 14.8651L8.50098 14.8809ZM7.93417 14.4148L8.50167 14.8815L8.51566 14.8645L7.94816 14.3978L7.93417 14.4148ZM7.38558 13.9894L7.93441 14.415L7.94791 14.3976L7.39907 13.972L7.38558 13.9894ZM6.62134 13.5384L7.38673 13.9902L7.39792 13.9712L6.63254 13.5194L6.62134 13.5384ZM5.94221 13.1727L6.62172 13.5386L6.63216 13.5192L5.95265 13.1533L5.94221 13.1727ZM5.36446 12.9305L5.94317 13.1732L5.95168 13.1529L5.37298 12.9102L5.36446 12.9305ZM4.88318 12.7477L5.36481 12.9306L5.37263 12.9101L4.891 12.7271L4.88318 12.7477ZM4.46263 12.6473L4.88453 12.7481L4.88965 12.7267L4.46775 12.6259L4.46263 12.6473ZM2.2324 16.3029L3.45255 18.0196L3.4705 18.0068L2.25035 16.2901L2.2324 16.3029ZM2.88485 16.4499L2.2441 16.2858L2.23864 16.3072L2.87939 16.4713L2.88485 16.4499ZM3.64214 16.7059L2.88565 16.4502L2.8786 16.471L3.63509 16.7267L3.64214 16.7059ZM5.25321 17.3393L3.64264 16.706L3.63458 16.7265L5.24515 17.3598L5.25321 17.3393ZM6.30448 17.8891L5.25429 17.3398L5.24408 17.3593L6.29427 17.9087L6.30448 17.8891ZM6.91162 18.2833L6.30537 17.8897L6.29338 17.9081L6.89963 18.3018L6.91162 18.2833ZM7.429 18.6579L6.91208 18.2836L6.89917 18.3015L7.41609 18.6757L7.429 18.6579ZM8.1282 19.2942L7.42996 18.6587L7.41514 18.6749L8.11337 19.3105L8.1282 19.2942ZM8.78398 20.1303L8.12945 19.2955L8.11212 19.3091L8.76665 20.1439L8.78398 20.1303ZM9.21993 20.9748L8.7851 20.132L8.76553 20.1421L9.20036 20.9849L9.21993 20.9748ZM9.44121 21.678L9.22065 20.9766L9.19964 20.9832L9.4202 21.6846L9.44121 21.678ZM9.54158 22.3078L9.44158 21.6796L9.41983 21.6831L9.51983 22.3112L9.54158 22.3078ZM9.57408 23.1636L9.54171 22.3091L9.5197 22.3099L9.55207 23.1644L9.57408 23.1636ZM9.49401 23.9872L9.57403 23.1651L9.55211 23.1629L9.47209 23.9851L9.49401 23.9872ZM9.41152 23.7717L9.47245 23.9891L9.49366 23.9832L9.43273 23.7657L9.41152 23.7717ZM9.15229 23.1291L9.41191 23.7728L9.43234 23.7646L9.17271 23.1209L9.15229 23.1291ZM8.94187 22.7024L9.15262 23.1299L9.17237 23.1201L8.96162 22.6927L8.94187 22.7024ZM8.71821 22.2848L8.94204 22.7028L8.96146 22.6924L8.73763 22.2744L8.71821 22.2848ZM8.39253 21.7287L8.71842 22.2851L8.73742 22.274L8.41153 21.7175L8.39253 21.7287ZM8.05866 21.2606L8.39307 21.7295L8.411 21.7167L8.07659 21.2478L8.05866 21.2606ZM7.6804 20.777L8.05895 21.261L8.0763 21.2474L7.69775 20.7635L7.6804 20.777ZM7.25327 20.332L7.68113 20.7779L7.69702 20.7626L7.26916 20.3167L7.25327 20.332ZM6.82839 19.9565L7.25393 20.3326L7.26851 20.3161L6.84297 19.94L6.82839 19.9565ZM6.41531 19.6113L6.82862 19.9567L6.84274 19.9398L6.42943 19.5944L6.41531 19.6113ZM5.83017 19.2311L6.41637 19.6121L6.42837 19.5936L5.84217 19.2126L5.83017 19.2311ZM5.30765 18.918L5.83051 19.2313L5.84183 19.2124L5.31897 18.8992L5.30765 18.918ZM4.85846 18.7007L5.30851 18.9185L5.31811 18.8987L4.86805 18.6809L4.85846 18.7007ZM4.17704 18.3478L4.85819 18.7006L4.86832 18.681L4.18717 18.3282L4.17704 18.3478ZM3.457 18.0232L4.17758 18.348L4.18663 18.328L3.46605 18.0031L3.457 18.0232ZM0.532636 13.975L-1.36238 12.5011L-1.3759 12.5185L0.519115 13.9924L0.532636 13.975ZM1.61517 14.101L0.527165 13.9728L0.524586 13.9947L1.61259 14.1229L1.61517 14.101ZM2.6353 14.2925L1.61591 14.1012L1.61184 14.1228L2.63123 14.3142L2.6353 14.2925ZM3.14247 14.425L2.63605 14.2927L2.63048 14.314L3.13691 14.4463L3.14247 14.425ZM3.73784 14.6247L3.14319 14.4252L3.13619 14.4461L3.73083 14.6456L3.73784 14.6247ZM4.40792 14.8712L3.73813 14.6249L3.73053 14.6455L4.40032 14.8919L4.40792 14.8712ZM4.8892 15.1037L4.40891 14.8716L4.39933 14.8914L4.87962 15.1235L4.8892 15.1037ZM5.38606 15.3583L4.88943 15.1038L4.87939 15.1234L5.37602 15.3779L5.38606 15.3583ZM5.89318 15.6661L5.38675 15.3587L5.37532 15.3775L5.88175 15.6849L5.89318 15.6661ZM6.35145 16.0067L5.89403 15.6667L5.8809 15.6843L6.33831 16.0243L6.35145 16.0067ZM6.76023 16.3388L6.35183 16.0069L6.33794 16.024L6.74635 16.3559L6.76023 16.3388ZM7.16939 16.7385L6.76099 16.3395L6.7456 16.3552L7.154 16.7542L7.16939 16.7385ZM7.45396 17.0401L7.16971 16.7388L7.15369 16.7539L7.43794 17.0552L7.45396 17.0401ZM7.72542 17.3499L7.45423 17.0404L7.43767 17.0549L7.70885 17.3644L7.72542 17.3499ZM8.07233 17.8209L7.726 17.3506L7.70827 17.3636L8.0546 17.8339L8.07233 17.8209ZM8.16134 17.9829L8.07312 17.8221L8.05381 17.8327L8.14203 17.9935L8.16134 17.9829ZM8.14067 17.3571V17.9882H8.16269V17.3571H8.14067ZM8.01671 16.7118L8.14087 17.3592L8.1625 17.355L8.03834 16.7076L8.01671 16.7118ZM7.84403 16.2432L8.01719 16.7135L8.03786 16.7059L7.86469 16.2356L7.84403 16.2432ZM7.53453 15.728L7.84492 16.2451L7.8638 16.2338L7.55341 15.7167L7.53453 15.728ZM6.9804 15.121L7.53584 15.7297L7.5521 15.7149L6.99667 15.1062L6.9804 15.121ZM6.1913 14.5361L6.98198 15.1225L6.99509 15.1048L6.20441 14.5184L6.1913 14.5361ZM5.37589 14.1054L6.19271 14.537L6.203 14.5176L5.38618 14.086L5.37589 14.1054ZM4.78218 13.8595L5.37682 14.1059L5.38525 14.0855L4.79061 13.8392L4.78218 13.8595ZM4.08994 13.6052L4.7826 13.8597L4.79019 13.839L4.09753 13.5845L4.08994 13.6052ZM2.90468 13.2655L4.0907 13.6055L4.09677 13.5843L2.91075 13.2443L2.90468 13.2655ZM1.10854 12.9033L2.90554 13.2657L2.90989 13.2441L1.11289 12.8817L1.10854 12.9033ZM0.269237 12.7649L1.10893 12.9034L1.11251 12.8816L0.27282 12.7432L0.269237 12.7649ZM-1.37076 12.5207L0.269406 12.765L0.272651 12.7432L-1.36752 12.4989L-1.37076 12.5207ZM5.68911 22.1655L4.13374 19.7299L4.11518 19.7417L5.67055 22.1774L5.68911 22.1655ZM5.75245 22.0153L5.67016 22.1662L5.68949 22.1767L5.77179 22.0258L5.75245 22.0153ZM5.85735 21.866L5.75312 22.0142L5.77113 22.0269L5.87537 21.8787L5.85735 21.866ZM5.97689 21.7565L5.85893 21.8642L5.87379 21.8805L5.99174 21.7727L5.97689 21.7565ZM6.06593 21.6962L5.97815 21.7555L5.99048 21.7737L6.07826 21.7144L6.06593 21.6962ZM6.17247 21.6492C6.10086 21.6761 6.07945 21.6883 6.06657 21.6958L6.07762 21.7148C6.08922 21.7081 6.10948 21.6964 6.1802 21.6698L6.17247 21.6492ZM6.37864 21.6874C6.35981 21.678 6.32709 21.6616 6.2901 21.6509C6.25331 21.6403 6.21062 21.6349 6.17247 21.6492L6.1802 21.6698C6.21181 21.658 6.24896 21.662 6.284 21.6721C6.31882 21.6821 6.3499 21.6977 6.36877 21.7071L6.37864 21.6874ZM6.38636 21.6913L6.37861 21.6874L6.3688 21.7071L6.37655 21.711L6.38636 21.6913ZM6.49505 21.7512L6.38677 21.6915L6.37614 21.7108L6.48441 21.7705L6.49505 21.7512ZM6.504 21.7569L6.49564 21.7516L6.48382 21.7702L6.49218 21.7755L6.504 21.7569ZM6.64563 21.9003C6.54941 21.7854 6.5246 21.7696 6.50386 21.7568L6.49233 21.7756C6.50996 21.7864 6.53293 21.8 6.62874 21.9145L6.64563 21.9003ZM6.85643 22.2509C6.81239 22.1612 6.73948 22.0125 6.64563 21.9003L6.62874 21.9145C6.7206 22.0242 6.79243 22.1705 6.83666 22.2607L6.85643 22.2509ZM6.88283 22.3037C6.87574 22.2903 6.86694 22.2724 6.85643 22.251L6.83666 22.2607C6.84711 22.2819 6.85607 22.3002 6.86336 22.314L6.88283 22.3037ZM7.11611 22.77L6.88294 22.3039L6.86325 22.3138L7.09641 22.7799L7.11611 22.77ZM7.25654 23.1674L7.11664 22.7713L7.09588 22.7786L7.23578 23.1747L7.25654 23.1674ZM7.3609 23.4991L7.25666 23.1677L7.23566 23.1743L7.3399 23.5057L7.3609 23.4991ZM7.46796 23.8685L7.36098 23.4994L7.33983 23.5055L7.44681 23.8746L7.46796 23.8685ZM7.52591 24.3066L7.4683 23.8701L7.44647 23.873L7.50407 24.3095L7.52591 24.3066ZM7.57808 24.8971L7.52596 24.3071L7.50402 24.309L7.55614 24.8991L7.57808 24.8971ZM7.57812 25.4801V24.8981H7.5561V25.4801H7.57812ZM7.53695 26.0763L7.57809 25.4808L7.55612 25.4793L7.51498 26.0748L7.53695 26.0763ZM7.45457 26.6644L7.53687 26.077L7.51506 26.074L7.43276 26.6613L7.45457 26.6644ZM7.35568 27.1286L7.45444 26.6652L7.4329 26.6606L7.33415 27.124L7.35568 27.1286ZM7.19923 27.7433L7.35559 27.129L7.33424 27.1236L7.17789 27.7379L7.19923 27.7433ZM7.0455 28.261L7.19911 27.7437L7.178 27.7375L7.02438 28.2548L7.0455 28.261ZM6.86435 28.8083L7.04539 28.2614L7.02449 28.2545L6.84344 28.8014L6.86435 28.8083ZM6.71313 29.1595L6.864 28.8092L6.84378 28.8005L6.69291 29.1508L6.71313 29.1595ZM6.67192 29.2512L6.71306 29.1596L6.69297 29.1506L6.65183 29.2422L6.67192 29.2512ZM7.08743 28.7971L6.65401 29.239L6.66973 29.2544L7.10315 28.8126L7.08743 28.7971ZM7.43502 28.3562L7.08664 28.798L7.10394 28.8117L7.45231 28.3698L7.43502 28.3562ZM7.75258 27.8559L7.43437 28.3571L7.45296 28.3689L7.77117 27.8677L7.75258 27.8559ZM7.96597 27.4259L7.75201 27.857L7.77174 27.8667L7.9857 27.4357L7.96597 27.4259ZM8.15481 26.923L7.96553 27.4269L7.98615 27.4346L8.17542 26.9308L8.15481 26.923ZM8.2807 26.474L8.15451 26.9239L8.17572 26.9299L8.3019 26.4799L8.2807 26.474ZM8.36832 26.0732L8.28054 26.4746L8.30206 26.4793L8.38984 26.0779L8.36832 26.0732ZM8.41479 25.7131L8.36816 26.0741L8.39 26.0769L8.43663 25.7159L8.41479 25.7131ZM8.4147 25.3022V25.7145H8.43672V25.3022H8.4147ZM8.4147 24.7257V25.3022H8.43672V24.7257H8.4147ZM8.39278 24.4112L8.41473 24.7264L8.4367 24.7249L8.41475 24.4097L8.39278 24.4112ZM8.29967 23.9005L8.39294 24.4124L8.4146 24.4084L8.32133 23.8965L8.29967 23.9005ZM8.17087 23.3676L8.2998 23.9011L8.3212 23.8959L8.19228 23.3624L8.17087 23.3676ZM8.02329 23.0163L8.17142 23.3693L8.19173 23.3608L8.0436 23.0078L8.02329 23.0163ZM7.81491 22.5504L8.02339 23.0166L8.04349 23.0076L7.83502 22.5415L7.81491 22.5504ZM7.59595 22.1661L7.8154 22.5514L7.83453 22.5405L7.61508 22.1552L7.59595 22.1661ZM7.32188 21.73L7.59619 22.1665L7.61484 22.1548L7.34052 21.7183L7.32188 21.73ZM7.05088 21.3752L7.32245 21.7309L7.33995 21.7175L7.06838 21.3619L7.05088 21.3752ZM6.73065 21.0339L7.0516 21.3761L7.06766 21.361L6.74671 21.0188L6.73065 21.0339ZM6.48138 20.7918L6.73101 21.0343L6.74635 21.0185L6.49673 20.776L6.48138 20.7918ZM6.20773 20.566L6.48205 20.7924L6.49606 20.7754L6.22175 20.5491L6.20773 20.566ZM5.94241 20.3834L6.2085 20.5666L6.22098 20.5485L5.9549 20.3653L5.94241 20.3834ZM5.6329 20.1924L5.94287 20.3837L5.95444 20.365L5.64446 20.1737L5.6329 20.1924ZM5.29916 20.0286L5.63383 20.1929L5.64353 20.1731L5.30887 20.0088L5.29916 20.0286ZM5.00654 19.9158L5.30006 20.029L5.30798 20.0084L5.01446 19.8952L5.00654 19.9158ZM4.71379 19.8271L5.00731 19.9161L5.01369 19.895L4.72018 19.8061L4.71379 19.8271ZM4.38518 19.7465L4.71436 19.8273L4.71961 19.8059L4.39043 19.7251L4.38518 19.7465ZM4.15808 19.7035L4.38576 19.7466L4.38985 19.725L4.16217 19.6818L4.15808 19.7035ZM4.07537 19.6845L4.15767 19.7034L4.16259 19.6819L4.08029 19.6631L4.07537 19.6845ZM4.13326 19.7292L4.08663 19.6672L4.06903 19.6804L4.11567 19.7424L4.13326 19.7292ZM6.42728 23.1497L6.37782 23.9109L6.3998 23.9124L6.44926 23.1511L6.42728 23.1497ZM6.46445 22.8847L6.42737 23.1489L6.44918 23.152L6.48626 22.8877L6.46445 22.8847ZM6.52282 23.024L6.486 22.8834L6.4647 22.889L6.50151 23.0296L6.52282 23.024ZM6.58875 23.3703L6.52298 23.0247L6.50135 23.0288L6.56711 23.3745L6.58875 23.3703ZM6.61063 23.6959L6.58891 23.3717L6.56694 23.3731L6.58866 23.6974L6.61063 23.6959ZM6.63215 24.0171L6.61063 23.6959L6.58866 23.6974L6.61017 24.0186L6.63215 24.0171ZM6.66828 24.5565L6.63215 24.0171L6.61017 24.0186L6.6463 24.558L6.66828 24.5565ZM6.67679 25.2292L6.6683 24.5571L6.64628 24.5574L6.65477 25.2295L6.67679 25.2292ZM6.64341 25.7771L6.67677 25.23L6.65479 25.2287L6.62143 25.7757L6.64341 25.7771ZM6.62113 26.2168L6.64341 25.777L6.62142 25.7759L6.59913 26.2157L6.62113 26.2168ZM6.56298 26.6234L6.62103 26.2178L6.59923 26.2147L6.54118 26.6203L6.56298 26.6234ZM6.5066 27.0988L6.56301 26.6232L6.54114 26.6206L6.48473 27.0962L6.5066 27.0988ZM6.44764 27.4472L6.50652 27.0993L6.4848 27.0956L6.42592 27.4435L6.44764 27.4472ZM6.36992 27.8332L6.44758 27.4475L6.42599 27.4432L6.34833 27.8289L6.36992 27.8332ZM6.26619 28.1971L6.36971 27.834L6.34854 27.828L6.24501 28.1911L6.26619 28.1971ZM6.14899 28.6279L6.26623 28.197L6.24498 28.1912L6.12774 28.6221L6.14899 28.6279ZM6.06395 28.9924L6.14909 28.6275L6.12764 28.6225L6.0425 28.9874L6.06395 28.9924ZM6.00769 29.2426L6.06397 28.9923L6.04248 28.9875L5.9862 29.2378L6.00769 29.2426ZM5.9691 29.7518C5.98196 29.5441 6.00033 29.3248 6.00791 29.2412L5.98598 29.2392C5.97839 29.323 5.96 29.5425 5.94712 29.7505L5.9691 29.7518ZM5.95789 30.0829C5.95632 30.0595 5.95624 29.9597 5.9691 29.7518L5.94712 29.7505C5.93426 29.9583 5.93424 30.0594 5.93592 30.0844L5.95789 30.0829ZM5.9788 30.395L5.95789 30.0829L5.93592 30.0844L5.95682 30.3965L5.9788 30.395ZM6.02906 30.6919L5.97867 30.3939L5.95695 30.3976L6.00735 30.6956L6.02906 30.6919ZM6.06715 30.9422L6.02909 30.6921L6.00732 30.6954L6.04538 30.9455L6.06715 30.9422ZM6.13245 31.1923L6.06692 30.941L6.04561 30.9466L6.11114 31.1979L6.13245 31.1923ZM6.20268 31.3814L6.13212 31.1913L6.11147 31.1989L6.18204 31.389L6.20268 31.3814ZM6.29449 31.5752L6.20231 31.3805L6.18241 31.3899L6.27459 31.5846L6.29449 31.5752ZM6.3672 31.7098L6.29423 31.5747L6.27485 31.5851L6.34782 31.7203L6.3672 31.7098ZM6.45216 31.8466L6.36687 31.7092L6.34816 31.7208L6.43345 31.8582L6.45216 31.8466ZM6.55466 32.0132L6.45219 31.8466L6.43343 31.8581L6.5359 32.0248L6.55466 32.0132ZM6.7032 32.1969L6.55385 32.0121L6.53672 32.0259L6.68607 32.2107L6.7032 32.1969ZM6.81659 32.3101L6.70242 32.196L6.68685 32.2116L6.80103 32.3257L6.81659 32.3101ZM6.98713 32.4564L6.81598 32.3096L6.80164 32.3263L6.9728 32.4731L6.98713 32.4564ZM7.1707 32.5771L6.98602 32.4555L6.97391 32.4739L7.15859 32.5955L7.1707 32.5771ZM7.38588 32.7055L7.17029 32.5768L7.15901 32.5957L7.3746 32.7244L7.38588 32.7055ZM7.59997 32.8186L7.38539 32.7052L7.37509 32.7246L7.58967 32.8381L7.59997 32.8186ZM7.76923 32.8984L7.59951 32.8184L7.59013 32.8383L7.75985 32.9183L7.76923 32.8984ZM8.0315 32.9864C7.90155 32.9588 7.80245 32.9161 7.76974 32.8986L7.75934 32.918C7.79398 32.9366 7.89505 32.9799 8.02693 33.0079L8.0315 32.9864ZM8.19652 33.0082C8.184 33.0089 8.1476 33.011 8.0315 32.9864L8.02693 33.0079C8.14431 33.0328 8.18269 33.031 8.19765 33.0302L8.19652 33.0082ZM8.20072 33.0081L8.19667 33.0082L8.1975 33.0302L8.20155 33.0301L8.20072 33.0081ZM8.68827 32.9754L8.2004 33.0081L8.20187 33.0301L8.68974 32.9974L8.68827 32.9754ZM8.97614 32.9561L8.68827 32.9754L8.68974 32.9974L8.97761 32.9781L8.97614 32.9561ZM9.12922 32.9126L8.97388 32.9565L8.97987 32.9777L9.13521 32.9338L9.12922 32.9126ZM9.32334 32.8031L9.12681 32.9136L9.13761 32.9328L9.33414 32.8223L9.32334 32.8031ZM9.49792 32.6912L9.3228 32.8034L9.33468 32.822L9.50979 32.7098L9.49792 32.6912ZM9.6744 32.5313L9.49647 32.6923L9.51125 32.7087L9.68917 32.5476L9.6744 32.5313ZM9.81005 32.3858L9.67373 32.5319L9.68984 32.547L9.82615 32.4009L9.81005 32.3858ZM9.97405 32.1657L9.80927 32.3868L9.82693 32.3999L9.99171 32.1789L9.97405 32.1657ZM10.0814 31.9261L9.97284 32.1678L9.99292 32.1768L10.1015 31.9351L10.0814 31.9261ZM10.1435 31.7253L10.081 31.9274L10.102 31.9339L10.1646 31.7318L10.1435 31.7253ZM10.1928 31.5936L10.1437 31.7247L10.1644 31.7324L10.2134 31.6013L10.1928 31.5936ZM10.1912 31.4484L10.1921 31.5975L10.2141 31.5974L10.2133 31.4483L10.1912 31.4484ZM10.1748 31.2037L10.1913 31.4491L10.2132 31.4476L10.1968 31.2022L10.1748 31.2037ZM10.1651 31.0582L10.1748 31.2037L10.1968 31.2022L10.187 31.0567L10.1651 31.0582ZM10.1499 30.8309L10.1651 31.0582L10.187 31.0567L10.1718 30.8295L10.1499 30.8309ZM10.1352 30.7479L10.15 30.8321L10.1717 30.8283L10.1569 30.7441L10.1352 30.7479ZM10.0843 30.576L10.1355 30.7491L10.1566 30.7429L10.1055 30.5697L10.0843 30.576ZM10.0244 30.4116L10.0846 30.5766L10.1052 30.5691L10.0451 30.4041L10.0244 30.4116ZM9.94575 30.2679L10.0251 30.4131L10.0444 30.4025L9.96507 30.2573L9.94575 30.2679ZM9.85623 30.1474L9.94657 30.2692L9.96426 30.256L9.87391 30.1343L9.85623 30.1474ZM9.70362 29.9784L9.8569 30.1482L9.87325 30.1334L9.71997 29.9636L9.70362 29.9784ZM9.61446 29.9134L9.7053 29.9799L9.7183 29.9621L9.62746 29.8956L9.61446 29.9134ZM9.38578 29.7958L9.61592 29.9143L9.626 29.8947L9.39586 29.7762L9.38578 29.7958ZM9.28293 29.7418L9.3857 29.7958L9.39594 29.7763L9.29317 29.7223L9.28293 29.7418ZM9.15974 29.7025C9.18198 29.7078 9.20739 29.7147 9.23005 29.7217C9.25297 29.7289 9.27225 29.736 9.28277 29.7417L9.29333 29.7224C9.28069 29.7155 9.25953 29.7078 9.2366 29.7007C9.2134 29.6935 9.18752 29.6865 9.16488 29.681L9.15974 29.7025ZM9.07342 29.6935C9.09004 29.6935 9.12254 29.6935 9.15974 29.7025L9.16488 29.681C9.125 29.6715 9.0903 29.6715 9.07342 29.6715V29.6935ZM8.93174 29.703L9.07416 29.6935L9.07268 29.6715L8.93026 29.681L8.93174 29.703ZM8.81659 29.7107L8.93174 29.703L8.93026 29.681L8.81512 29.6887L8.81659 29.7107ZM8.73929 29.7305C8.7833 29.7121 8.808 29.7107 8.81585 29.7107V29.6887C8.80484 29.6887 8.77727 29.6908 8.73081 29.7102L8.73929 29.7305ZM8.65871 29.7689C8.68727 29.7547 8.71793 29.7395 8.73929 29.7305L8.73081 29.7102C8.70861 29.7195 8.67719 29.7351 8.6489 29.7492L8.65871 29.7689ZM8.60689 29.7941C8.62036 29.788 8.63905 29.7787 8.65871 29.7689L8.6489 29.7492C8.62909 29.759 8.61082 29.7681 8.5978 29.774L8.60689 29.7941ZM8.47948 29.8649L8.60769 29.7937L8.597 29.7744L8.46878 29.8456L8.47948 29.8649ZM8.36434 29.9552L8.48092 29.8639L8.46734 29.8466L8.35076 29.9379L8.36434 29.9552ZM8.2534 30.0595L8.36509 29.9546L8.35001 29.9385L8.23833 30.0434L8.2534 30.0595ZM8.15834 30.1715L8.25426 30.0586L8.23747 30.0443L8.14155 30.1573L8.15834 30.1715ZM8.08855 30.2611L8.15863 30.1712L8.14126 30.1576L8.07118 30.2475L8.08855 30.2611ZM8.02945 30.3643L8.08942 30.2598L8.07032 30.2488L8.01035 30.3533L8.02945 30.3643ZM7.97327 30.5126L8.0302 30.3627L8.00961 30.3549L7.95269 30.5048L7.97327 30.5126ZM7.93343 30.7221C7.93786 30.6451 7.96198 30.5499 7.97352 30.5119L7.95244 30.5055C7.9407 30.5441 7.91602 30.6413 7.91145 30.7208L7.93343 30.7221ZM7.94017 30.9577C7.93706 30.9113 7.93139 30.7992 7.93345 30.7217L7.91143 30.7211C7.90934 30.7997 7.91508 30.9126 7.9182 30.9591L7.94017 30.9577ZM7.94008 31.2293L7.94019 30.9584L7.91817 30.9584L7.91805 31.2293L7.94008 31.2293ZM7.92722 31.4925L7.94006 31.2298L7.91807 31.2288L7.90522 31.4914L7.92722 31.4925ZM7.8861 31.4623L7.90672 31.4975L7.92572 31.4864L7.9051 31.4512L7.8861 31.4623ZM7.824 31.316L7.88546 31.4611L7.90574 31.4525L7.84428 31.3075L7.824 31.316ZM7.78306 31.1651L7.82351 31.3146L7.84477 31.3089L7.80432 31.1594L7.78306 31.1651ZM7.73882 30.915C7.77018 31.0563 7.78114 31.1396 7.78271 31.163L7.80468 31.1615C7.803 31.1365 7.79176 31.052 7.76032 30.9102L7.73882 30.915ZM7.71982 30.7184C7.7181 30.7391 7.71681 30.8157 7.73882 30.915L7.76032 30.9102C7.7388 30.8132 7.74022 30.7388 7.74176 30.7202L7.71982 30.7184ZM7.71259 30.5251L7.71979 30.7197L7.74179 30.7189L7.7346 30.5243L7.71259 30.5251ZM7.72669 30.3251L7.71261 30.5239L7.73458 30.5255L7.74866 30.3267L7.72669 30.3251ZM7.72623 30.311C7.72646 30.3162 7.72666 30.3208 7.72666 30.3259H7.74868C7.74868 30.3202 7.74846 30.3152 7.74823 30.31L7.72623 30.311ZM7.74042 30.1197C7.72382 30.2541 7.72515 30.2865 7.72623 30.311L7.74823 30.31C7.74722 30.2872 7.74575 30.2562 7.76227 30.1224L7.74042 30.1197ZM7.78459 30.0076L7.74111 30.117L7.76158 30.1251L7.80506 30.0157L7.78459 30.0076ZM7.78461 30.0076L7.78457 30.0077L7.80508 30.0157L7.80511 30.0156L7.78461 30.0076ZM7.82538 29.9091C7.81986 29.9187 7.81608 29.9283 7.78463 30.0075L7.8051 30.0156C7.83707 29.9351 7.83998 29.9278 7.84445 29.9201L7.82538 29.9091ZM7.96832 29.6381L7.82518 29.9094L7.84465 29.9197L7.9878 29.6484L7.96832 29.6381ZM8.1839 29.3813L7.96964 29.6361L7.98649 29.6503L8.20075 29.3955L8.1839 29.3813ZM8.35329 29.217L8.18466 29.3805L8.19999 29.3963L8.36862 29.2328L8.35329 29.217ZM8.54965 29.1109L8.35574 29.2152L8.36618 29.2346L8.56008 29.1303L8.54965 29.1109ZM8.7976 29.0479L8.55216 29.11L8.55756 29.1313L8.803 29.0692L8.7976 29.0479ZM8.80716 29.0457L8.79784 29.0478L8.80276 29.0693L8.81208 29.0671L8.80716 29.0457ZM9.20663 29.0203C8.94393 29.0135 8.84511 29.0367 8.80709 29.0457L8.81216 29.0671C8.84816 29.0586 8.94507 29.0355 9.20606 29.0423L9.20663 29.0203ZM9.51169 29.0386C9.47949 29.0307 9.43565 29.0203 9.20635 29.0203V29.0423C9.43518 29.0423 9.4769 29.0528 9.50647 29.06L9.51169 29.0386ZM9.52543 29.0417C9.52081 29.0408 9.51651 29.0398 9.51169 29.0386L9.50647 29.06C9.51124 29.0612 9.51597 29.0623 9.5211 29.0633L9.52543 29.0417ZM9.80921 29.1175L9.52611 29.0419L9.52043 29.0632L9.80353 29.1388L9.80921 29.1175ZM10.1508 29.2811L9.81113 29.1182L9.80161 29.138L10.1413 29.301L10.1508 29.2811ZM10.4307 29.4826L10.1525 29.2821L10.1396 29.3L10.4178 29.5005L10.4307 29.4826ZM10.6744 29.7758L10.4327 29.4845L10.4158 29.4986L10.6575 29.7898L10.6744 29.7758ZM10.8506 30.0661L10.6754 29.7771L10.6565 29.7885L10.8318 30.0775L10.8506 30.0661ZM11.0474 30.5549L10.8514 30.0677L10.831 30.0759L11.027 30.5631L11.0474 30.5549ZM11.114 30.9907L11.0481 30.5574L11.0263 30.5607L11.0922 30.994L11.114 30.9907ZM11.1114 31.3609L11.1141 30.9924L11.0921 30.9923L11.0894 31.3607L11.1114 31.3609ZM11.0892 31.6675L11.1114 31.3616L11.0894 31.36L11.0673 31.6659L11.0892 31.6675ZM11.0226 31.9506L11.089 31.6692L11.0676 31.6642L11.0012 31.9456L11.0226 31.9506ZM10.9151 32.2602L11.0223 31.9517L11.0015 31.9445L10.8943 32.253L10.9151 32.2602ZM10.799 32.5305L10.9148 32.261L10.8946 32.2523L10.7787 32.5218L10.799 32.5305ZM10.6566 32.8176L10.7987 32.5311L10.779 32.5213L10.6368 32.8078L10.6566 32.8176ZM10.5337 33.0333L10.6563 32.8181L10.6371 32.8072L10.5146 33.0224L10.5337 33.0333ZM10.3924 33.2115L10.5328 33.0347L10.5155 33.021L10.3752 33.1978L10.3924 33.2115ZM9.80324 33.7122C10.1197 33.4547 10.327 33.272 10.3913 33.2128L10.3763 33.1966C10.3125 33.2555 10.1056 33.4378 9.78934 33.6951L9.80324 33.7122ZM9.55426 33.8466C9.58779 33.836 9.65648 33.8142 9.80257 33.7127L9.79001 33.6946C9.64573 33.7949 9.57904 33.8157 9.54764 33.8256L9.55426 33.8466ZM9.54398 33.8499L9.55435 33.8466L9.54755 33.8256L9.53717 33.829L9.54398 33.8499ZM9.07029 33.9763C9.28463 33.9326 9.47537 33.8739 9.5442 33.8499L9.53695 33.8291C9.46896 33.8528 9.27917 33.9113 9.0659 33.9547L9.07029 33.9763ZM8.69697 34.0287C8.73276 34.0295 8.85626 34.0199 9.07029 33.9763L9.0659 33.9547C8.85232 33.9982 8.73074 34.0074 8.69744 34.0067L8.69697 34.0287ZM8.2491 34.0588C8.53569 34.0493 8.66832 34.0348 8.69939 34.0285L8.69502 34.0069C8.66603 34.0128 8.53518 34.0273 8.24837 34.0368L8.2491 34.0588ZM7.38536 33.9639C7.84833 34.0512 7.94202 34.0689 8.2491 34.0588L8.24837 34.0368C7.94388 34.0468 7.85221 34.0295 7.38944 33.9423L7.38536 33.9639ZM7.38354 33.9636L7.38537 33.9639L7.38943 33.9423L7.3876 33.9419L7.38354 33.9636ZM7.11073 33.9125C7.2144 33.9317 7.30436 33.9486 7.38353 33.9636L7.38761 33.9419C7.30844 33.927 7.21845 33.91 7.11474 33.8908L7.11073 33.9125ZM6.83243 33.8049C6.88026 33.8306 6.96832 33.8699 7.10958 33.9122L7.1159 33.8911C6.97575 33.8491 6.88912 33.8104 6.84286 33.7855L6.83243 33.8049ZM6.84472 33.7867L6.84461 33.7867L6.83068 33.8037L6.83079 33.8038L6.84472 33.7867ZM6.13168 33.3608C6.4585 33.6145 6.73521 33.7628 6.83337 33.8054L6.84214 33.7852C6.74593 33.7434 6.47079 33.5962 6.14518 33.3434L6.13168 33.3608ZM5.63613 32.7672C5.83636 33.0709 5.92974 33.1842 6.13118 33.3603L6.14568 33.3438C5.9462 33.1693 5.85406 33.0577 5.65451 32.755L5.63613 32.7672ZM5.30615 32.0566C5.4303 32.4009 5.47332 32.5202 5.63613 32.7672L5.65451 32.755C5.49322 32.5104 5.45092 32.3932 5.32687 32.0491L5.30615 32.0566ZM5.30612 32.0565L5.30614 32.0566L5.32688 32.0492L5.32685 32.0491L5.30612 32.0565ZM5.20338 31.7742C5.24376 31.8836 5.27716 31.9762 5.30613 32.0565L5.32684 32.049C5.29787 31.9687 5.26445 31.876 5.22404 31.7665L5.20338 31.7742ZM5.11393 31.4629C5.11401 31.4782 5.118 31.5061 5.13099 31.5546C5.14403 31.6034 5.1663 31.6737 5.20338 31.7742L5.22404 31.7665C5.1871 31.6665 5.16507 31.5969 5.15226 31.5489C5.1394 31.5008 5.13601 31.4752 5.13595 31.4628L5.11393 31.4629ZM5.08195 31.1495L5.11399 31.464L5.1359 31.4618L5.10386 31.1472L5.08195 31.1495ZM5.04173 30.5491L5.08192 31.1491L5.10389 31.1476L5.06371 30.5476L5.04173 30.5491ZM5.08196 29.9666L5.04174 30.5476L5.0637 30.5491L5.10393 29.9681L5.08196 29.9666ZM5.13442 29.5667L5.08202 29.9659L5.10386 29.9688L5.15626 29.5696L5.13442 29.5667ZM5.38874 28.7656L5.13485 29.5648L5.15584 29.5715L5.40972 28.7722L5.38874 28.7656ZM5.71321 27.703L5.3887 28.7657L5.40976 28.7721L5.73427 27.7094L5.71321 27.703ZM5.92221 26.7827L5.71301 27.7037L5.73448 27.7086L5.94369 26.7875L5.92221 26.7827ZM6.12851 25.7738L5.92216 26.7829L5.94374 26.7873L6.15009 25.7782L6.12851 25.7738ZM6.26626 24.7881L6.12839 25.7744L6.1502 25.7775L6.28807 24.7912L6.26626 24.7881ZM6.37789 23.9103L6.26625 24.7883L6.28809 24.7911L6.39974 23.913L6.37789 23.9103ZM9.72371 4.58612C9.72371 4.25011 9.45133 3.97773 9.11533 3.97773V3.99975C9.43917 3.99975 9.70169 4.26228 9.70169 4.58612H9.72371ZM9.72371 4.9087V4.58612H9.70169V4.9087H9.72371ZM9.39012 4.91971H9.7127V4.89769H9.39012V4.91971ZM8.78173 4.31132C8.78173 4.64733 9.05412 4.91971 9.39012 4.91971V4.89769C9.06628 4.89769 8.80375 4.63516 8.80375 4.31132H8.78173ZM8.78173 3.98874V4.31132H8.80375V3.98874H8.78173ZM9.11533 3.97773H8.79274V3.99975H9.11533V3.97773Z" fill="white"/>
</g>
<defs>
<clipPath id="clip0_572_2">
<rect width="16" height="16" rx="8" fill="white"/>
</clipPath>
</defs>
</svg>
