<svg width="178" height="57" viewBox="0 0 178 57" fill="none" xmlns="http://www.w3.org/2000/svg">
<path d="M19.6271 0.975159L36.1276 37.0037H27.0448L16.5491 10.714L19.6271 0.975159ZM8.77821 33.6228C8.50909 34.2956 8.45863 34.8675 8.62683 35.3385C8.79503 35.8094 9.08097 36.1795 9.48465 36.4486C9.88833 36.6841 10.292 36.8018 10.6957 36.8018H11.1498V37.3064H0.351379V36.8018C0.351379 36.8018 0.435479 36.8018 0.60368 36.8018C0.73824 36.8018 0.80552 36.8018 0.80552 36.8018C1.57924 36.8018 2.36978 36.5663 3.17714 36.0954C4.01814 35.5908 4.70777 34.7666 5.24601 33.6228H8.77821ZM19.6271 0.975159L19.829 7.13129L7.31487 37.155H3.63128L16.7004 7.58543C16.8014 7.38359 16.9696 7.01355 17.205 6.47531C17.4742 5.90343 17.7433 5.26426 18.0124 4.55782C18.3152 3.85138 18.5843 3.17858 18.8198 2.53942C19.0552 1.86662 19.173 1.3452 19.173 0.975159H19.6271ZM24.9254 25.2969V27.4162L22.6999 25.2969H17.5078H24.9254ZM25.6823 33.6228H34.5129C35.0847 34.7666 35.7744 35.5908 36.5817 36.0954C37.3891 36.5663 38.1796 36.8018 38.9533 36.8018C38.9533 36.8018 39.0206 36.8018 39.1552 36.8018C39.2897 36.8018 39.357 36.8018 39.357 36.8018V37.3064H23.3107V36.8018H23.7649C24.4377 36.8018 25.0264 36.5327 25.531 35.9944C26.0356 35.4226 26.086 34.632 25.6823 33.6228Z" fill="white"/>
<path d="M50.0948 7.03037H55.5445C56.9237 7.03037 58.2693 7.18175 59.5813 7.48451C60.8932 7.75363 62.0706 8.20777 63.1135 8.84693C64.1563 9.45245 64.9805 10.2935 65.586 11.3699C66.2252 12.4128 66.5447 13.7247 66.5447 15.3058C66.5447 16.4832 66.2924 17.6606 65.7878 18.838C65.3169 19.9818 64.56 20.9742 63.5172 21.8152C62.5079 22.6562 61.1792 23.2112 59.5308 23.4804C60.5064 23.7831 61.4315 24.3718 62.3061 25.2465C63.2144 26.1211 63.9208 26.9453 64.4254 27.719C64.56 27.9881 64.7955 28.4254 65.1319 29.031C65.4683 29.6028 65.8888 30.2756 66.3934 31.0494C66.9316 31.7894 67.4867 32.5632 68.0586 33.3705C68.7314 34.2788 69.3201 34.9852 69.8247 35.4898C70.3293 35.9608 70.8507 36.2972 71.3889 36.499C71.9272 36.7009 72.4989 36.8212 73.2053 36.8212V37.3191L69.0173 37.3064C67.2007 37.3064 65.6533 37.1718 64.375 36.9027C63.1303 36.6336 62.037 36.1458 61.0951 35.4394C60.1868 34.6993 59.3458 33.7069 58.5721 32.4622C58.2693 32.0249 57.9497 31.5035 57.6133 30.898C57.2769 30.2588 56.9405 29.6197 56.6041 28.9805C56.2677 28.3413 55.965 27.719 55.6958 27.1135C55.4604 26.508 55.2922 26.0034 55.1912 25.5997C54.7539 24.5232 54.2493 23.7495 53.6774 23.2785C53.1392 22.7739 52.6346 22.5216 52.1636 22.5216V22.0675C52.1636 22.0675 52.2814 22.0675 52.5168 22.0675C52.7523 22.0675 53.0551 22.0675 53.4251 22.0675C54.1316 22.0675 54.8212 21.9497 55.494 21.7142C56.2004 21.4451 56.8396 20.9573 57.4115 20.2509C57.9834 19.5108 58.4039 18.4343 58.673 17.0215C58.7403 16.8196 58.7907 16.5337 58.8244 16.1636C58.8916 15.7936 58.9085 15.3731 58.8748 14.9021C58.8075 13.6575 58.5721 12.6651 58.1684 11.925C57.7983 11.1513 57.3274 10.5794 56.7555 10.2094C56.1836 9.80567 55.5949 9.53655 54.9894 9.40199C54.4175 9.23379 53.9129 9.14969 53.4756 9.14969C52.8364 9.11605 52.2477 9.11605 51.7095 9.14969C51.2049 9.14969 50.818 9.13287 50.5489 9.09923C50.5153 9.09923 50.4648 8.93103 50.3975 8.59463C50.3302 8.22459 50.263 7.87137 50.1957 7.53497C50.1284 7.19857 50.0948 7.03037 50.0948 7.03037ZM50.5994 7.03037V37.3064H43.2827V7.03037H50.5994ZM43.434 34.1274L43.6359 37.3064H40.0027V36.8018C40.0364 36.8018 40.1205 36.8018 40.2551 36.8018C40.4233 36.8018 40.541 36.8018 40.6083 36.8018C41.3484 36.8018 41.9707 36.5495 42.4753 36.0449C43.0135 35.5067 43.2995 34.8675 43.3331 34.1274H43.434ZM43.434 10.1589H43.3331C43.2995 9.38517 43.0135 8.76283 42.4753 8.29187C41.9707 7.78727 41.3652 7.53497 40.6587 7.53497C40.5578 7.53497 40.4233 7.53497 40.2551 7.53497C40.1205 7.53497 40.0364 7.53497 40.0027 7.53497V7.03037H43.6359L43.434 10.1589ZM50.4984 34.1274H50.5994C50.5994 34.9684 50.8853 35.6244 51.4572 36.0954C52.0627 36.5663 52.7019 36.8018 53.3747 36.8018C53.3747 36.8018 53.4419 36.8018 53.5765 36.8018C53.7111 36.8018 53.812 36.8018 53.8793 36.8018V37.3064H50.2461L50.4984 34.1274Z" fill="white"/>
<path d="M79.1693 2.00239H87.8989C90.3546 2.00239 92.5412 2.30516 94.4587 2.91068C96.4098 3.48256 97.9405 4.40766 99.0506 5.68598C100.161 6.93066 100.716 8.57902 100.716 10.6311C100.716 12.1785 100.413 13.4905 99.8075 14.567C99.2356 15.6434 98.4787 16.4676 97.5368 17.0395C96.5949 17.6114 95.6025 17.9646 94.5596 18.0992C96.2416 18.2337 97.7554 18.7047 99.101 19.512C100.48 20.3194 101.557 21.3959 102.33 22.7415C103.104 24.0871 103.491 25.6682 103.491 27.4847C103.491 29.6377 102.902 31.4543 101.725 32.9344C100.548 34.3809 98.8824 35.4742 96.7294 36.2143C94.6101 36.9544 92.1376 37.3245 89.3118 37.3245H84.3162C84.3162 37.3245 84.3162 37.1394 84.3162 36.7694C84.3499 36.3657 84.3667 35.9788 84.3667 35.6088C84.3667 35.2388 84.3667 35.0537 84.3667 35.0537H87.0915C88.6053 35.0537 89.9341 34.7678 91.0779 34.1959C92.2553 33.624 93.1636 32.7326 93.8027 31.5215C94.4755 30.3105 94.8119 28.7631 94.8119 26.8792C94.8119 25.399 94.5765 24.1375 94.1055 23.0947C93.6682 22.0519 93.0627 21.2109 92.2889 20.5717C91.5489 19.8989 90.6742 19.4111 89.665 19.1084C88.6558 18.8056 87.5962 18.6542 86.486 18.6542V18.2001C87.2598 18.2001 88.0166 18.0823 88.7567 17.8469C89.4968 17.5777 90.1528 17.1741 90.7247 16.6358C91.3302 16.0976 91.8011 15.3911 92.1376 14.5165C92.474 13.6082 92.6422 12.5317 92.6422 11.287C92.6422 9.57141 92.373 8.19216 91.8348 7.14932C91.3302 6.10648 90.5901 5.34958 89.6145 4.87862C88.639 4.40766 87.512 4.17218 86.2337 4.17218H79.6739C79.6739 4.13854 79.6235 3.95352 79.5225 3.61712C79.4553 3.24708 79.3712 2.89386 79.2702 2.55746C79.2029 2.18742 79.1693 2.00239 79.1693 2.00239ZM84.7704 2.00239V37.3245H77.2014V2.00239H84.7704ZM77.3528 33.6409L77.4025 37.3371H74.0627L73.9953 36.8198C74.0626 36.8198 73.501 36.8198 73.6692 36.8198C73.8374 36.8198 74.0014 36.8198 74.0351 36.8198C74.9097 36.8198 75.5866 36.5171 76.1922 35.9116C76.8313 35.2724 77.1677 34.5155 77.2014 33.6409H77.3528ZM77.3528 5.68598H77.2014C77.1677 4.81134 76.8313 4.07126 76.1922 3.46574C75.5866 2.82658 74.8466 2.50699 73.9719 2.50699C73.9383 2.50699 73.8374 2.50699 73.6692 2.50699C73.501 2.50699 73.3832 2.50699 73.3159 2.50699V2.00239H77.3528V5.68598Z" fill="white"/>
<path d="M120.949 5.66794L135.886 37.0541H127.358L117.972 14.9021L120.949 5.66794ZM111.463 33.976C111.093 34.8843 111.143 35.5908 111.614 36.0954C112.085 36.5663 112.607 36.8018 113.179 36.8018H113.582V37.3064H103.49V36.8018C103.49 36.8018 103.557 36.8018 103.692 36.8018C103.827 36.8018 103.894 36.8018 103.894 36.8018C104.567 36.8018 105.273 36.6 106.013 36.1963C106.753 35.759 107.359 35.0189 107.83 33.976H111.463ZM120.949 5.66794L121.05 11.7232L110.1 37.155H106.366L118.174 11.7736C118.241 11.5718 118.393 11.2186 118.628 10.714C118.864 10.1757 119.116 9.58701 119.385 8.94785C119.654 8.27505 119.907 7.65271 120.142 7.08083C120.377 6.47531 120.512 6.00434 120.546 5.66794H120.949ZM125.339 27.4162V29.3842L112.472 27.4162L124.789 29.3001L125.339 27.4162ZM126.096 33.976H134.422C134.927 35.0189 135.549 35.759 136.289 36.1963C137.029 36.6 137.736 36.8018 138.409 36.8018C138.409 36.8018 138.476 36.8018 138.61 36.8018C138.745 36.8018 138.812 36.8018 138.812 36.8018V37.3064H123.977V36.8018H124.381C124.953 36.8018 125.474 36.5663 125.945 36.0954C126.416 35.5908 126.466 34.8843 126.096 33.976Z" fill="white"/>
<path d="M143.313 6.32393L172.933 32.3613L173.437 37.9624L143.868 11.925L143.313 6.32393ZM143.515 34.2283V37.3064H139.781V36.8018C139.781 36.8018 139.915 36.8018 140.184 36.8018C140.453 36.8018 140.588 36.8018 140.588 36.8018C141.362 36.8018 142.018 36.5663 142.556 36.0954C143.094 35.5908 143.363 34.9684 143.363 34.2283H143.515ZM150.276 34.2283C150.31 34.9684 150.596 35.5908 151.134 36.0954C151.672 36.5663 152.312 36.8018 153.052 36.8018C153.052 36.8018 153.186 36.8018 153.455 36.8018C153.758 36.8018 153.909 36.8018 153.909 36.8018V37.3064H150.175V34.2283H150.276ZM143.313 6.32393L150.276 13.8929V37.3064H143.363V12.0764C143.363 10.3607 143.279 8.98149 143.111 7.93865C142.943 6.86217 142.859 6.32393 142.859 6.32393H143.313ZM173.387 7.03037V32.0586C173.387 33.236 173.421 34.2788 173.488 35.1871C173.589 36.0617 173.673 36.7514 173.74 37.256C173.841 37.7269 173.892 37.9624 173.892 37.9624H173.437L166.474 29.9392V7.03037H173.387ZM173.236 10.1084V7.03037H177.02V7.53497C177.02 7.53497 176.869 7.53497 176.566 7.53497C176.297 7.53497 176.162 7.53497 176.162 7.53497C175.422 7.53497 174.766 7.78727 174.194 8.29187C173.656 8.76283 173.387 9.36835 173.387 10.1084H173.236ZM166.474 10.1084C166.44 9.36835 166.154 8.76283 165.616 8.29187C165.112 7.78727 164.472 7.53497 163.699 7.53497C163.699 7.53497 163.547 7.53497 163.245 7.53497C162.975 7.53497 162.841 7.53497 162.841 7.53497V7.03037H166.575V10.1084H166.474Z" fill="white"/>
<line x1="0.240479" y1="45.1742" x2="19.7125" y2="45.1742" stroke="white" stroke-width="0.442545"/>
<path d="M25.5573 45.8158L24.2342 43.4443L22.9726 45.8158H25.5573ZM27.8445 47.9083H26.7214L25.8496 46.3529H22.7008L21.8701 47.9083H20.8188L23.706 42.7956H24.7778L27.8445 47.9083Z" fill="white"/>
<path d="M30.4906 47.9955C29.0034 47.9955 28.2257 47.5979 28.1573 46.8028H29.1265C29.1334 47.2538 29.5846 47.4793 30.4804 47.4793C30.8804 47.4793 31.1846 47.4235 31.3932 47.3119C31.6052 47.198 31.7111 47.0562 31.7111 46.8865C31.7111 46.7191 31.6086 46.6016 31.4034 46.5342C31.1983 46.4645 30.7744 46.375 30.1316 46.2657C29.4923 46.1564 29.024 46.0343 28.7265 45.8995C28.4325 45.7646 28.2855 45.5275 28.2855 45.188C28.2855 44.8811 28.4684 44.6277 28.8342 44.4278C29.2034 44.2255 29.6957 44.1243 30.3111 44.1243C31.7368 44.1243 32.465 44.4696 32.4958 45.1601H31.5317C31.4975 44.8114 31.1129 44.637 30.3778 44.637C30.053 44.637 29.7829 44.6789 29.5675 44.7626C29.3556 44.8463 29.2496 44.9683 29.2496 45.1287C29.2496 45.2729 29.3316 45.3775 29.4957 45.4426C29.6599 45.5054 30.0701 45.5914 30.7265 45.7007C31.3864 45.8077 31.8752 45.9332 32.1932 46.0774C32.5146 46.2215 32.6753 46.4703 32.6753 46.8237C32.6753 47.1608 32.477 47.441 32.0804 47.6642C31.6872 47.8851 31.1573 47.9955 30.4906 47.9955Z" fill="white"/>
<path d="M36.0035 47.9955C35.2308 47.9955 34.612 47.8269 34.1471 47.4898C33.6855 47.1504 33.4547 46.6737 33.4547 46.0599C33.4547 45.4438 33.6855 44.9672 34.1471 44.63C34.612 44.2929 35.2308 44.1243 36.0035 44.1243C36.5983 44.1243 37.0941 44.2266 37.4907 44.4312C37.8907 44.6358 38.1266 44.9311 38.1984 45.3171H37.2035C37.1898 45.0962 37.0667 44.9276 36.8342 44.8114C36.6052 44.6951 36.3283 44.637 36.0035 44.637C35.5419 44.637 35.1676 44.7567 34.8804 44.9962C34.5932 45.2334 34.4496 45.5879 34.4496 46.0599C34.4496 46.5296 34.5932 46.8841 34.8804 47.1236C35.1676 47.3608 35.5419 47.4793 36.0035 47.4793C36.3283 47.4793 36.6052 47.4212 36.8342 47.305C37.0667 47.1887 37.1898 47.0213 37.2035 46.8028H38.1984C38.1266 47.1887 37.8907 47.484 37.4907 47.6886C37.0941 47.8932 36.5983 47.9955 36.0035 47.9955Z" fill="white"/>
<path d="M41.3625 47.9955C40.5625 47.9955 39.9197 47.8258 39.4343 47.4863C38.9488 47.1445 38.706 46.6691 38.706 46.0599C38.706 45.4554 38.9402 44.9823 39.4086 44.6405C39.8804 44.2964 40.4958 44.1243 41.2548 44.1243C42.0308 44.1243 42.6497 44.2929 43.1112 44.63C43.5762 44.9672 43.8086 45.4438 43.8086 46.0599V46.2169H39.7112C39.7522 46.6447 39.9249 46.962 40.2291 47.169C40.5368 47.3759 40.9146 47.4793 41.3625 47.4793C41.7009 47.4793 42.0052 47.4212 42.2753 47.305C42.5488 47.1864 42.6924 47.019 42.7061 46.8028H43.7061C43.6309 47.1841 43.3762 47.4782 42.942 47.6851C42.5112 47.892 41.9847 47.9955 41.3625 47.9955ZM42.7881 45.7007C42.7095 45.345 42.5334 45.0788 42.2599 44.9021C41.9864 44.7254 41.6514 44.637 41.2548 44.637C40.8685 44.637 40.5368 44.7254 40.2599 44.9021C39.983 45.0764 39.8069 45.3426 39.7317 45.7007H42.7881Z" fill="white"/>
<path d="M45.8651 44.6789C46.3471 44.3092 46.889 44.1243 47.4907 44.1243C48.7181 44.1243 49.3317 44.5789 49.3317 45.488V47.9083H48.3625V45.5159C48.3625 45.2136 48.2822 44.9962 48.1215 44.8637C47.9642 44.7312 47.7044 44.6649 47.342 44.6649C46.8497 44.6649 46.3574 44.8625 45.8651 45.2578V47.9083H44.8958V44.208H45.8651V44.6789Z" fill="white"/>
<path d="M54.1882 46.8446V45.0869C53.7711 44.787 53.2942 44.637 52.7574 44.637C52.3437 44.637 52.0121 44.7591 51.7625 45.0032C51.5164 45.245 51.3933 45.6065 51.3933 46.0878C51.3933 46.5435 51.5095 46.8899 51.742 47.1271C51.9779 47.3619 52.3027 47.4793 52.7164 47.4793C53.2565 47.4793 53.7471 47.2678 54.1882 46.8446ZM54.1882 47.4654C53.7574 47.8188 53.2394 47.9955 52.6343 47.9955C51.9232 47.9955 51.3728 47.8234 50.983 47.4793C50.5933 47.1352 50.3984 46.6714 50.3984 46.0878C50.3984 45.4833 50.6155 45.0055 51.0497 44.6544C51.4873 44.301 52.036 44.1243 52.6959 44.1243C53.2839 44.1243 53.7813 44.2476 54.1882 44.494V42.7956H55.1523V47.9083H54.1882V47.4654Z" fill="white"/>
<path d="M66.1934 44.208L64.5574 47.9083H63.6344L62.4549 45.188L61.2805 47.9083H60.3574L58.7164 44.208H59.7882L60.7882 47.0294L62.0138 44.208H62.8959L64.1267 47.0294L65.1267 44.208H66.1934Z" fill="white"/>
<path d="M67.937 47.9083H66.9677V44.208H67.937V47.9083ZM67.937 43.507H66.9677V42.7956H67.937V43.507Z" fill="white"/>
<path d="M71.4806 47.9153C71.2686 47.9432 71.0378 47.9571 70.7882 47.9571C70.3917 47.9571 70.1011 47.9095 69.9164 47.8141C69.7318 47.7165 69.6173 47.5921 69.5729 47.441C69.5284 47.2899 69.5062 47.0841 69.5062 46.8237V44.7242H68.8344V44.208H69.5062V43.2873H70.4703V44.208H71.3524V44.7242H70.4703V46.8586C70.4703 47.112 70.5164 47.2736 70.6088 47.3433C70.7045 47.4108 70.8344 47.4445 70.9985 47.4445C71.166 47.4445 71.3267 47.4352 71.4806 47.4166V47.9153Z" fill="white"/>
<path d="M73.2601 44.6789C73.7421 44.3092 74.284 44.1243 74.8857 44.1243C76.1131 44.1243 76.7267 44.5789 76.7267 45.488V47.9083H75.7575V45.5159C75.7575 45.2136 75.6772 44.9962 75.5165 44.8637C75.3592 44.7312 75.0994 44.6649 74.737 44.6649C74.2447 44.6649 73.7524 44.8625 73.2601 45.2578V47.9083H72.2908V42.7956H73.2601V44.6789Z" fill="white"/>
<path d="M84.9422 45.8158L83.6191 43.4443L82.3575 45.8158H84.9422ZM87.2293 47.9083H86.1063L85.2345 46.3529H82.0857L81.255 47.9083H80.2037L83.0909 42.7956H84.1627L87.2293 47.9083Z" fill="white"/>
<path d="M90.7576 44.8079C90.6208 44.78 90.4242 44.766 90.1678 44.766C89.6755 44.766 89.2533 44.9416 88.9011 45.2927V47.9083H87.9319V44.208H88.9011V44.7242C89.308 44.3243 89.7798 44.1243 90.3165 44.1243C90.4533 44.1243 90.6003 44.1336 90.7576 44.1522V44.8079Z" fill="white"/>
<path d="M94.8755 46.9353V46.1157H94.214C92.8123 46.1157 92.1114 46.375 92.1114 46.8934C92.1114 47.0818 92.214 47.2271 92.4191 47.3294C92.6242 47.4294 92.9012 47.4793 93.2499 47.4793C93.5678 47.4793 93.8755 47.4305 94.173 47.3329C94.4704 47.2352 94.7046 47.1027 94.8755 46.9353ZM94.8755 47.5282C94.3832 47.8397 93.749 47.9955 92.973 47.9955C92.4328 47.9955 91.9883 47.8967 91.6396 47.6991C91.2909 47.4991 91.1165 47.2422 91.1165 46.9283C91.1165 46.0634 92.2123 45.631 94.4037 45.631H94.8755C94.8755 45.3659 94.855 45.1741 94.814 45.0555C94.773 44.9346 94.6584 44.8346 94.4704 44.7556C94.2824 44.6765 93.9832 44.637 93.573 44.637C92.7114 44.637 92.267 44.8463 92.2396 45.2648H91.2755C91.3473 44.5045 92.1302 44.1243 93.6242 44.1243C94.3217 44.1243 94.8653 44.2185 95.255 44.4068C95.6448 44.5952 95.8396 44.9648 95.8396 45.5159V47.9083H94.8755V47.5282Z" fill="white"/>
<path d="M98.2448 44.651C98.6755 44.2999 99.1935 44.1243 99.7986 44.1243C100.51 44.1243 101.06 44.2964 101.45 44.6405C101.84 44.9823 102.035 45.445 102.035 46.0285C102.035 46.6354 101.816 47.1155 101.378 47.4689C100.944 47.82 100.395 47.9955 99.732 47.9955C99.1439 47.9955 98.6482 47.8711 98.2448 47.6223V47.9083H97.2755V42.7956H98.2448V44.651ZM98.2448 47.0294C98.6585 47.3294 99.1337 47.4793 99.6704 47.4793C100.088 47.4793 100.419 47.3584 100.665 47.1166C100.911 46.8725 101.035 46.5098 101.035 46.0285C101.035 45.5728 100.918 45.2276 100.686 44.9927C100.453 44.7556 100.129 44.637 99.7114 44.637C99.1747 44.637 98.6858 44.8486 98.2448 45.2717V47.0294Z" fill="white"/>
<path d="M104.091 47.9083H103.122V44.208H104.091V47.9083ZM104.091 43.507H103.122V42.7956H104.091V43.507Z" fill="white"/>
<path d="M108.968 46.9353V46.1157H108.306C106.905 46.1157 106.204 46.375 106.204 46.8934C106.204 47.0818 106.306 47.2271 106.511 47.3294C106.717 47.4294 106.994 47.4793 107.342 47.4793C107.66 47.4793 107.968 47.4305 108.265 47.3329C108.563 47.2352 108.797 47.1027 108.968 46.9353ZM108.968 47.5282C108.476 47.8397 107.841 47.9955 107.065 47.9955C106.525 47.9955 106.081 47.8967 105.732 47.6991C105.383 47.4991 105.209 47.2422 105.209 46.9283C105.209 46.0634 106.305 45.631 108.496 45.631H108.968C108.968 45.3659 108.947 45.1741 108.906 45.0555C108.865 44.9346 108.751 44.8346 108.563 44.7556C108.375 44.6765 108.076 44.637 107.665 44.637C106.804 44.637 106.359 44.8463 106.332 45.2648H105.368C105.44 44.5045 106.223 44.1243 107.717 44.1243C108.414 44.1243 108.958 44.2185 109.347 44.4068C109.737 44.5952 109.932 44.9648 109.932 45.5159V47.9083H108.968V47.5282Z" fill="white"/>
<path d="M112.337 44.6789C112.819 44.3092 113.361 44.1243 113.963 44.1243C115.19 44.1243 115.804 44.5789 115.804 45.488V47.9083H114.835V45.5159C114.835 45.2136 114.754 44.9962 114.594 44.8637C114.436 44.7312 114.176 44.6649 113.814 44.6649C113.322 44.6649 112.829 44.8625 112.337 45.2578V47.9083H111.368V44.208H112.337V44.6789Z" fill="white"/>
<path d="M124.019 45.8158L122.696 43.4443L121.435 45.8158H124.019ZM126.306 47.9083H125.183L124.312 46.3529H121.163L120.332 47.9083H119.281L122.168 42.7956H123.24L126.306 47.9083Z" fill="white"/>
<path d="M129.835 44.8079C129.698 44.78 129.501 44.766 129.245 44.766C128.753 44.766 128.33 44.9416 127.978 45.2927V47.9083H127.009V44.208H127.978V44.7242C128.385 44.3243 128.857 44.1243 129.394 44.1243C129.53 44.1243 129.677 44.1336 129.835 44.1522V44.8079Z" fill="white"/>
<path d="M132.712 44.1243C133.488 44.1243 134.106 44.2929 134.568 44.63C135.033 44.9672 135.265 45.4438 135.265 46.0599C135.265 46.6737 135.033 47.1504 134.568 47.4898C134.106 47.8269 133.488 47.9955 132.712 47.9955C131.939 47.9955 131.32 47.8269 130.855 47.4898C130.394 47.1504 130.163 46.6737 130.163 46.0599C130.163 45.4438 130.394 44.9672 130.855 44.63C131.32 44.2929 131.939 44.1243 132.712 44.1243ZM132.712 47.4793C133.173 47.4793 133.548 47.3608 133.835 47.1236C134.122 46.8841 134.265 46.5296 134.265 46.0599C134.265 45.5879 134.122 45.2334 133.835 44.9962C133.548 44.7567 133.173 44.637 132.712 44.637C132.25 44.637 131.876 44.7567 131.589 44.9962C131.301 45.2334 131.158 45.5879 131.158 46.0599C131.158 46.5296 131.301 46.8841 131.589 47.1236C131.876 47.3608 132.25 47.4793 132.712 47.4793Z" fill="white"/>
<path d="M143.707 47.9083H142.737V45.5159C142.737 45.209 142.672 44.9904 142.542 44.8602C142.412 44.73 142.195 44.6649 141.891 44.6649C141.423 44.6649 140.963 44.8625 140.512 45.2578V47.9083H139.548V45.5159C139.548 45.209 139.483 44.9904 139.353 44.8602C139.223 44.73 139.004 44.6649 138.696 44.6649C138.228 44.6649 137.77 44.8625 137.322 45.2578V47.9083H136.353V44.208H137.322V44.6789C137.78 44.3092 138.288 44.1243 138.845 44.1243C139.642 44.1243 140.149 44.3475 140.368 44.7939C140.73 44.5033 141.038 44.3196 141.291 44.2429C141.544 44.1639 141.792 44.1243 142.035 44.1243C143.149 44.1243 143.707 44.5789 143.707 45.488V47.9083Z" fill="white"/>
<path d="M148.548 46.9353V46.1157H147.886C146.484 46.1157 145.783 46.375 145.783 46.8934C145.783 47.0818 145.886 47.2271 146.091 47.3294C146.296 47.4294 146.573 47.4793 146.922 47.4793C147.24 47.4793 147.548 47.4305 147.845 47.3329C148.142 47.2352 148.377 47.1027 148.548 46.9353ZM148.548 47.5282C148.055 47.8397 147.421 47.9955 146.645 47.9955C146.105 47.9955 145.66 47.8967 145.312 47.6991C144.963 47.4991 144.789 47.2422 144.789 46.9283C144.789 46.0634 145.884 45.631 148.076 45.631H148.548C148.548 45.3659 148.527 45.1741 148.486 45.0555C148.445 44.9346 148.33 44.8346 148.142 44.7556C147.954 44.6765 147.655 44.637 147.245 44.637C146.383 44.637 145.939 44.8463 145.912 45.2648H144.948C145.019 44.5045 145.802 44.1243 147.296 44.1243C147.994 44.1243 148.537 44.2185 148.927 44.4068C149.317 44.5952 149.512 44.9648 149.512 45.5159V47.9083H148.548V47.5282Z" fill="white"/>
<path d="M152.891 47.9955C151.404 47.9955 150.626 47.5979 150.558 46.8028H151.527C151.534 47.2538 151.985 47.4793 152.881 47.4793C153.281 47.4793 153.585 47.4235 153.794 47.3119C154.006 47.198 154.112 47.0562 154.112 46.8865C154.112 46.7191 154.009 46.6016 153.804 46.5342C153.599 46.4645 153.175 46.375 152.532 46.2657C151.893 46.1564 151.424 46.0343 151.127 45.8995C150.833 45.7646 150.686 45.5275 150.686 45.188C150.686 44.8811 150.869 44.6277 151.235 44.4278C151.604 44.2255 152.096 44.1243 152.712 44.1243C154.137 44.1243 154.866 44.4696 154.896 45.1601H153.932C153.898 44.8114 153.513 44.637 152.778 44.637C152.454 44.637 152.183 44.6789 151.968 44.7626C151.756 44.8463 151.65 44.9683 151.65 45.1287C151.65 45.2729 151.732 45.3775 151.896 45.4426C152.06 45.5054 152.471 45.5914 153.127 45.7007C153.787 45.8077 154.276 45.9332 154.594 46.0774C154.915 46.2215 155.076 46.4703 155.076 46.8237C155.076 47.1608 154.878 47.441 154.481 47.6642C154.088 47.8851 153.558 47.9955 152.891 47.9955Z" fill="white"/>
<line x1="156.182" y1="45.1742" x2="175.654" y2="45.1742" stroke="white" stroke-width="0.442545"/>
</svg>
