<svg width="89" height="18" viewBox="0 0 89 18" fill="none" xmlns="http://www.w3.org/2000/svg">
<path d="M9.04999 0.699951L10.9359 6.50421H17.0389L12.1015 10.0914L13.9874 15.8957L9.04999 12.3085L4.1126 15.8957L5.99852 10.0914L1.06112 6.50421H7.16408L9.04999 0.699951Z" fill="#F5D57A"/>
<path d="M26.9 0.699951L28.7859 6.50421H34.8889L29.9515 10.0914L31.8374 15.8957L26.9 12.3085L21.9626 15.8957L23.8485 10.0914L18.9111 6.50421H25.0141L26.9 0.699951Z" fill="#F5D57A"/>
<path d="M44.75 0.699951L46.6359 6.50421H52.7389L47.8015 10.0914L49.6874 15.8957L44.75 12.3085L39.8126 15.8957L41.6985 10.0914L36.7611 6.50421H42.8641L44.75 0.699951Z" fill="#F5D57A"/>
<path d="M62.6 0.699951L64.4859 6.50421H70.5889L65.6515 10.0914L67.5374 15.8957L62.6 12.3085L57.6626 15.8957L59.5485 10.0914L54.6111 6.50421H60.7141L62.6 0.699951Z" fill="#F5D57A"/>
<path d="M80.45 0.699951L82.3359 6.50421H88.4389L83.5015 10.0914L85.3874 15.8957L80.45 12.3085L75.5126 15.8957L77.3985 10.0914L72.4611 6.50421H78.5641L80.45 0.699951Z" fill="#D9D9D9"/>
</svg>
